;TYPE=PLATED
;Layer: PTH_Through_Via
;EasyEDA Pro Client v2.2.45.4, 2026-04-26 19:59:05
;Gerber Generator version 0.3
M48
METRIC,LZ,0000.00000
;Hole size 1 = 0.30000 METRIC
T01C0.30000
;Hole size 2 = 0.50000 METRIC
T02C0.50000
;Hole size 3 = 0.60000 METRIC
T03C0.60000
%
G05
G90
T01
X20.42146Y-5.14325
X19.49765Y-5.12797
X18.65924Y-5.12439
X18.84368Y-37.49799
X18.79315Y-38.83111
X17.6602Y-36.71994
X15.33992Y-36.93985
X6.73362Y-35.94985
X2.32445Y-37.89985
X22.45443Y-1.76097
X24.3586Y-0.6684
X17.7378Y-4.7456
X22.53608Y-3.65727
X21.86869Y-3.66323
X14.2494Y-5.6642
X10.72313Y-5.7018
X11.34986Y-16.6792
X12.19083Y-15.84999
X13.84091Y-15.84999
X13.84091Y-17.5
X13.84091Y-19.15001
X12.21978Y-19.15001
X12.21978Y-17.51871
X12.99987Y-16.6792
X14.56463Y-16.6792
X14.6558Y-18.3388
X13.00616Y-18.3388
X11.34786Y-18.3388
X23.2664Y-6.096
X23.552Y-8.56181
X8.5Y-39.2748
X8.8Y-37.5
X9.75929Y-38.79984
X5.78015Y-34.452
X12.53992Y-34.76054
X10.09433Y-35.86053
X16.0Y-22.4
X19.1Y-22.4
X18.00893Y-22.363
X16.87668Y-22.4145
X21.81095Y-24.04295
X10.0Y-23.0
X20.67591Y-28.25558
X20.86909Y-25.89995
X20.86909Y-27.43496
X23.81665Y-7.60545
X5.6388Y-8.3645
X7.0Y-23.0
X6.985Y-21.844
X8.13812Y-21.844
T02
X12.0Y-21.0
X24.0Y-15.29118
T03
X22.225Y-7.95106
M30