G04 Layer: TopSilkscreenLayer*
G04 EasyEDA Pro v2.2.45.4, 2026-04-26 19:59:05*
G04 Gerber Generator version 0.3*
G04 Scale: 100 percent, Rotated: No, Reflected: No*
G04 Dimensions in millimeters*
G04 Leading zeros omitted, absolute positions, 4 integers and 5 decimals*
G04 Generated by one-click*
%FSLAX45Y45*%
%MOMM*%
%ADD10C,0.1524*%
%ADD11C,0.254*%
%ADD12C,0.15001*%
%ADD13C,0.3*%
%ADD14C,0.152*%
%ADD15C,0.2023*%
%ADD16C,0.2*%
G75*


G04 Text Start*
G54D10*
G01X967618Y-835764D02*
G01X967618Y-900788D01*
G01X967618Y-835764D02*
G01X995558Y-835764D01*
G01X1004702Y-838812D01*
G01X1007750Y-841860D01*
G01X1011052Y-848210D01*
G01X1011052Y-854306D01*
G01X1007750Y-860402D01*
G01X1004702Y-863450D01*
G01X995558Y-866752D01*
G01X967618Y-866752D01*
G01X989208Y-866752D02*
G01X1011052Y-900788D01*
G01X1041278Y-835764D02*
G01X1084458Y-900788D01*
G01X1084458Y-835764D02*
G01X1041278Y-900788D01*
G01X614703Y-25766D02*
G01X583715Y-25766D01*
G01X580667Y-53452D01*
G01X583715Y-50404D01*
G01X593113Y-47356D01*
G01X602511Y-47356D01*
G01X611655Y-50404D01*
G01X617751Y-56754D01*
G01X621053Y-65898D01*
G01X621053Y-72248D01*
G01X617751Y-81392D01*
G01X611655Y-87742D01*
G01X602511Y-90790D01*
G01X593113Y-90790D01*
G01X583715Y-87742D01*
G01X580667Y-84440D01*
G01X577619Y-78344D01*
G01X651279Y-25766D02*
G01X675917Y-90790D01*
G01X700809Y-25766D02*
G01X675917Y-90790D01*
G01X2355766Y-1386284D02*
G01X2355766Y-1352248D01*
G01X2380404Y-1370790D01*
G01X2380404Y-1361392D01*
G01X2383452Y-1355296D01*
G01X2386754Y-1352248D01*
G01X2395898Y-1348946D01*
G01X2402248Y-1348946D01*
G01X2411392Y-1352248D01*
G01X2417742Y-1358344D01*
G01X2420790Y-1367488D01*
G01X2420790Y-1376886D01*
G01X2417742Y-1386284D01*
G01X2414440Y-1389332D01*
G01X2408344Y-1392380D01*
G01X2405296Y-1315672D02*
G01X2408344Y-1318720D01*
G01X2411392Y-1315672D01*
G01X2408344Y-1312624D01*
G01X2405296Y-1315672D01*
G01X2355766Y-1276302D02*
G01X2355766Y-1242266D01*
G01X2380404Y-1260808D01*
G01X2380404Y-1251664D01*
G01X2383452Y-1245314D01*
G01X2386754Y-1242266D01*
G01X2395898Y-1239218D01*
G01X2402248Y-1239218D01*
G01X2411392Y-1242266D01*
G01X2417742Y-1248362D01*
G01X2420790Y-1257760D01*
G01X2420790Y-1267158D01*
G01X2417742Y-1276302D01*
G01X2414440Y-1279350D01*
G01X2408344Y-1282398D01*
G01X2355766Y-1208992D02*
G01X2420790Y-1184354D01*
G01X2355766Y-1159462D02*
G01X2420790Y-1184354D01*
G01X1289207Y-825764D02*
G01X1289207Y-890788D01*
G01X1267617Y-825764D02*
G01X1311051Y-825764D01*
G01X1341277Y-825764D02*
G01X1384457Y-890788D01*
G01X1384457Y-825764D02*
G01X1341277Y-890788D01*
G01X2392380Y-2744234D02*
G01X2392380Y-2679210D01*
G01X2392380Y-2744234D02*
G01X2364440Y-2744234D01*
G01X2355296Y-2741186D01*
G01X2352248Y-2738138D01*
G01X2348946Y-2731788D01*
G01X2348946Y-2725692D01*
G01X2352248Y-2719596D01*
G01X2355296Y-2716548D01*
G01X2364440Y-2713246D01*
G01X2392380Y-2713246D02*
G01X2364440Y-2713246D01*
G01X2355296Y-2710198D01*
G01X2352248Y-2707150D01*
G01X2348946Y-2701054D01*
G01X2348946Y-2691656D01*
G01X2352248Y-2685560D01*
G01X2355296Y-2682258D01*
G01X2364440Y-2679210D01*
G01X2392380Y-2679210D01*
G01X2303480Y-2722644D02*
G01X2309576Y-2719596D01*
G01X2315672Y-2713246D01*
G01X2318720Y-2704102D01*
G01X2318720Y-2697752D01*
G01X2315672Y-2688608D01*
G01X2309576Y-2682258D01*
G01X2303480Y-2679210D01*
G01X2294082Y-2679210D01*
G01X2287986Y-2682258D01*
G01X2281636Y-2688608D01*
G01X2278588Y-2697752D01*
G01X2278588Y-2704102D01*
G01X2281636Y-2713246D01*
G01X2287986Y-2719596D01*
G01X2294082Y-2722644D01*
G01X2303480Y-2722644D01*
G01X2233122Y-2722644D02*
G01X2239218Y-2719596D01*
G01X2245314Y-2713246D01*
G01X2248362Y-2704102D01*
G01X2248362Y-2697752D01*
G01X2245314Y-2688608D01*
G01X2239218Y-2682258D01*
G01X2233122Y-2679210D01*
G01X2223724Y-2679210D01*
G01X2217628Y-2682258D01*
G01X2211278Y-2688608D01*
G01X2208230Y-2697752D01*
G01X2208230Y-2704102D01*
G01X2211278Y-2713246D01*
G01X2217628Y-2719596D01*
G01X2223724Y-2722644D01*
G01X2233122Y-2722644D01*
G01X2168860Y-2744234D02*
G01X2168860Y-2691656D01*
G01X2165812Y-2682258D01*
G01X2159462Y-2679210D01*
G01X2153366Y-2679210D01*
G01X2178004Y-2722644D02*
G01X2156414Y-2722644D01*
G01X122174Y-434340D02*
G01X57150Y-434340D01*
G01X122174Y-434340D02*
G01X122174Y-462280D01*
G01X119126Y-471424D01*
G01X116078Y-474472D01*
G01X109728Y-477774D01*
G01X103632Y-477774D01*
G01X97536Y-474472D01*
G01X94488Y-471424D01*
G01X91186Y-462280D01*
G01X91186Y-434340D01*
G01X91186Y-455930D02*
G01X57150Y-477774D01*
G01X82042Y-508000D02*
G01X82042Y-545084D01*
G01X88138Y-545084D01*
G01X94488Y-542036D01*
G01X97536Y-538734D01*
G01X100584Y-532638D01*
G01X100584Y-523240D01*
G01X97536Y-517144D01*
G01X91186Y-511048D01*
G01X82042Y-508000D01*
G01X75692Y-508000D01*
G01X66548Y-511048D01*
G01X60198Y-517144D01*
G01X57150Y-523240D01*
G01X57150Y-532638D01*
G01X60198Y-538734D01*
G01X66548Y-545084D01*
G01X91186Y-609346D02*
G01X97536Y-606044D01*
G01X100584Y-596900D01*
G01X100584Y-587502D01*
G01X97536Y-578358D01*
G01X91186Y-575310D01*
G01X85090Y-578358D01*
G01X82042Y-584454D01*
G01X78994Y-599948D01*
G01X75692Y-606044D01*
G01X69596Y-609346D01*
G01X66548Y-609346D01*
G01X60198Y-606044D01*
G01X57150Y-596900D01*
G01X57150Y-587502D01*
G01X60198Y-578358D01*
G01X66548Y-575310D01*
G01X82042Y-639572D02*
G01X82042Y-676656D01*
G01X88138Y-676656D01*
G01X94488Y-673608D01*
G01X97536Y-670306D01*
G01X100584Y-664210D01*
G01X100584Y-654812D01*
G01X97536Y-648716D01*
G01X91186Y-642620D01*
G01X82042Y-639572D01*
G01X75692Y-639572D01*
G01X66548Y-642620D01*
G01X60198Y-648716D01*
G01X57150Y-654812D01*
G01X57150Y-664210D01*
G01X60198Y-670306D01*
G01X66548Y-676656D01*
G01X122174Y-716026D02*
G01X69596Y-716026D01*
G01X60198Y-719074D01*
G01X57150Y-725424D01*
G01X57150Y-731520D01*
G01X100584Y-706882D02*
G01X100584Y-728472D01*
G04 Text End*

G04 PolygonModel Start*
G54D11*
G01X2293783Y-406321D02*
G01X2293783Y-326324D01*
G01X2293737Y-462366D02*
G01X2293737Y-542364D01*
G01X2435751Y-406321D02*
G01X2435751Y-326324D01*
G01X2435703Y-462366D02*
G01X2435703Y-542364D01*
G01X2324765Y-295349D02*
G01X2404770Y-295349D01*
G01X2404717Y-573341D02*
G01X2324715Y-573341D01*
G01X2435703Y-542359D02*
G02X2404717Y-573341I-30983J0D01*
G01X2324720Y-573341D02*
G02X2293737Y-542359I0J30983D01*
G01X2293783Y-326329D02*
G02X2324765Y-295349I30983J-3D01*
G01X2404763Y-295349D02*
G02X2435751Y-326329I5J-30983D01*
G01X2151543Y-538401D02*
G01X2151543Y-458404D01*
G01X2151497Y-594446D02*
G01X2151497Y-674444D01*
G01X2293511Y-538401D02*
G01X2293511Y-458404D01*
G01X2293463Y-594446D02*
G01X2293463Y-674444D01*
G01X2182525Y-427429D02*
G01X2262530Y-427429D01*
G01X2262477Y-705421D02*
G01X2182475Y-705421D01*
G01X2293463Y-674439D02*
G02X2262477Y-705421I-30983J0D01*
G01X2182480Y-705421D02*
G02X2151497Y-674439I0J30983D01*
G01X2151543Y-458409D02*
G02X2182525Y-427429I30983J-3D01*
G01X2262523Y-427429D02*
G02X2293511Y-458409I5J-30983D01*
G01X754217Y-612219D02*
G01X754217Y-692216D01*
G01X754263Y-556174D02*
G01X754263Y-476176D01*
G01X612249Y-612219D02*
G01X612249Y-692216D01*
G01X612297Y-556174D02*
G01X612297Y-476176D01*
G01X723235Y-723191D02*
G01X643230Y-723191D01*
G01X643283Y-445198D02*
G01X723285Y-445198D01*
G01X612297Y-476181D02*
G02X643283Y-445198I30983J0D01*
G01X723280Y-445198D02*
G02X754263Y-476181I0J-30983D01*
G01X754217Y-692211D02*
G02X723235Y-723191I-30983J3D01*
G01X643237Y-723191D02*
G02X612249Y-692211I-5J30983D01*
G01X1698015Y-3549035D02*
G01X1778013Y-3549035D01*
G01X1641970Y-3548990D02*
G01X1561973Y-3548990D01*
G01X1698015Y-3691004D02*
G01X1778013Y-3691004D01*
G01X1641970Y-3690955D02*
G01X1561973Y-3690955D01*
G01X1808988Y-3580018D02*
G01X1808988Y-3660023D01*
G01X1530995Y-3659970D02*
G01X1530995Y-3579967D01*
G01X1561978Y-3690955D02*
G02X1530995Y-3659970I0J30983D01*
G01X1530995Y-3579973D02*
G02X1561978Y-3548990I30983J0D01*
G01X1778008Y-3549035D02*
G02X1808988Y-3580018I-3J-30983D01*
G01X1808988Y-3660016D02*
G02X1778008Y-3691004I-30983J-5D01*
G01X240957Y-3748011D02*
G01X240957Y-3828009D01*
G01X241003Y-3691966D02*
G01X241003Y-3611969D01*
G01X98989Y-3748011D02*
G01X98989Y-3828009D01*
G01X99037Y-3691966D02*
G01X99037Y-3611969D01*
G01X209974Y-3858984D02*
G01X129969Y-3858984D01*
G01X130023Y-3580991D02*
G01X210025Y-3580991D01*
G01X99037Y-3611974D02*
G02X130023Y-3580991I30983J0D01*
G01X210020Y-3580991D02*
G02X241003Y-3611974I0J-30983D01*
G01X240957Y-3828004D02*
G02X209974Y-3858984I-30983J3D01*
G01X129977Y-3858984D02*
G02X98989Y-3828004I-5J30983D01*
G01X498018Y-3459035D02*
G01X578015Y-3459035D01*
G01X441972Y-3458990D02*
G01X361975Y-3458990D01*
G01X498018Y-3601004D02*
G01X578015Y-3601004D01*
G01X441972Y-3600955D02*
G01X361975Y-3600955D01*
G01X608990Y-3490018D02*
G01X608990Y-3570023D01*
G01X330997Y-3569970D02*
G01X330997Y-3489968D01*
G01X361980Y-3600955D02*
G02X330997Y-3569970I0J30983D01*
G01X330997Y-3489973D02*
G02X361980Y-3458990I30983J0D01*
G01X578010Y-3459035D02*
G02X608990Y-3490018I-3J-30983D01*
G01X608990Y-3570016D02*
G02X578010Y-3601004I-30983J-5D01*
G54D10*
G01X2296140Y-195021D02*
G01X2296140Y-290909D01*
G01X2296140Y-290909D02*
G01X2428260Y-290909D01*
G01X2428260Y-290909D02*
G01X2428260Y-195021D01*
G01X2296140Y-109779D02*
G01X2296140Y-13891D01*
G01X2296140Y-13891D02*
G01X2428260Y-13891D01*
G01X2428260Y-13891D02*
G01X2428260Y-109779D01*
G01X497820Y-855421D02*
G01X497820Y-951309D01*
G01X497820Y-951309D02*
G01X629940Y-951309D01*
G01X629940Y-951309D02*
G01X629940Y-855421D01*
G01X497820Y-770179D02*
G01X497820Y-674291D01*
G01X497820Y-674291D02*
G01X629940Y-674291D01*
G01X629940Y-674291D02*
G01X629940Y-770179D01*
G01X1152619Y-3586053D02*
G01X1248507Y-3586053D01*
G01X1248507Y-3586053D02*
G01X1248507Y-3453933D01*
G01X1248507Y-3453933D02*
G01X1152619Y-3453933D01*
G01X1067377Y-3586053D02*
G01X971489Y-3586053D01*
G01X971489Y-3586053D02*
G01X971489Y-3453933D01*
G01X971489Y-3453933D02*
G01X1067377Y-3453933D01*
G01X1152619Y-3466054D02*
G01X1248507Y-3466054D01*
G01X1248507Y-3466054D02*
G01X1248507Y-3333933D01*
G01X1248507Y-3333933D02*
G01X1152619Y-3333933D01*
G01X1067377Y-3466054D02*
G01X971489Y-3466054D01*
G01X971489Y-3466054D02*
G01X971489Y-3333933D01*
G01X971489Y-3333933D02*
G01X1067377Y-3333933D01*
G54D11*
G01X89987Y-2239999D02*
G01X89987Y-2089999D01*
G01X89987Y-2089999D02*
G01X249987Y-2089999D01*
G01X249987Y-2089999D02*
G01X249987Y-1870000D01*
G01X249987Y-1870000D02*
G01X89987Y-1870000D01*
G01X89987Y-1870000D02*
G01X89987Y-1650000D01*
G01X89987Y-1650000D02*
G01X249987Y-1650000D01*
G01X249987Y-1650000D02*
G01X249987Y-1430001D01*
G01X249987Y-1430001D02*
G01X89987Y-1430001D01*
G01X89987Y-1430001D02*
G01X89987Y-1219999D01*
G01X89987Y-1219999D02*
G01X359987Y-1219999D01*
G01X359987Y-2400001D02*
G01X89987Y-2400001D01*
G01X89987Y-2400001D02*
G01X89987Y-2239999D01*
G01X89987Y-2239999D02*
G01X359987Y-2239999D01*
G01X525026Y-2520001D02*
G01X525026Y-969999D01*
G01X525026Y-969999D02*
G01X521399Y-969999D01*
G01X19987Y-2520001D02*
G01X19987Y-969999D01*
G01X19987Y-969999D02*
G01X2069988Y-969999D01*
G01X2069988Y-969999D02*
G01X2069988Y-2520001D01*
G01X2069988Y-2520001D02*
G01X19987Y-2520001D01*
G54D10*
G01X322382Y-3927622D02*
G01X637626Y-3927622D01*
G01X322382Y-3612378D02*
G01X637626Y-3612378D01*
G54D12*
G01X1800007Y-3724585D02*
G01X1800007Y-3700000D01*
G01X1800007Y-3960002D02*
G01X1800007Y-3935415D01*
G01X1540005Y-3724585D02*
G01X1540005Y-3700000D01*
G01X1540005Y-3960002D02*
G01X1540005Y-3935415D01*
G01X1800007Y-3960002D02*
G01X1540005Y-3960002D01*
G01X1800007Y-3700000D02*
G01X1540005Y-3700000D01*
G54D13*
G01X1828010Y-3955992D02*
G03X1853410Y-3955865I12699J127D01*
G03X1828010Y-3955738I-12700J0D01*
G54D10*
G01X1795600Y-426441D02*
G01X1795600Y-606679D01*
G01X2105840Y-426441D02*
G01X2105840Y-606679D01*
G01X1905180Y-606679D02*
G01X1996260Y-606679D01*
G54D11*
G01X672003Y-3089288D02*
G01X672003Y-3339993D01*
G01X418003Y-3089996D02*
G01X672003Y-3089288D01*
G01X418000Y-3339993D02*
G01X1941995Y-3339993D01*
G01X418000Y-2839994D02*
G01X418000Y-3339993D01*
G01X1941995Y-2839994D02*
G01X418000Y-2839994D01*
G01X1941995Y-3339993D02*
G01X1941995Y-2839994D01*
G01X2470957Y-1778019D02*
G01X2470957Y-1858016D01*
G01X2471003Y-1721974D02*
G01X2471003Y-1641976D01*
G01X2328989Y-1778019D02*
G01X2328989Y-1858016D01*
G01X2329038Y-1721974D02*
G01X2329038Y-1641976D01*
G01X2439975Y-1888991D02*
G01X2359970Y-1888991D01*
G01X2360023Y-1610999D02*
G01X2440025Y-1610999D01*
G01X2329038Y-1641981D02*
G02X2360023Y-1610999I30983J0D01*
G01X2440020Y-1610999D02*
G02X2471003Y-1641981I0J-30983D01*
G01X2470957Y-1858011D02*
G02X2439975Y-1888991I-30983J3D01*
G01X2359977Y-1888991D02*
G02X2328989Y-1858011I-5J30983D01*
G01X691980Y-2690952D02*
G01X611983Y-2690952D01*
G01X748025Y-2690998D02*
G01X828022Y-2690998D01*
G01X691980Y-2548984D02*
G01X611983Y-2548984D01*
G01X748025Y-2549032D02*
G01X828022Y-2549032D01*
G01X581007Y-2659969D02*
G01X581007Y-2579964D01*
G01X859000Y-2580018D02*
G01X859000Y-2660020D01*
G01X828017Y-2549032D02*
G02X859000Y-2580018I0J-30983D01*
G01X859000Y-2660015D02*
G02X828017Y-2690998I-30983J0D01*
G01X611988Y-2690952D02*
G02X581007Y-2659969I3J30983D01*
G01X581007Y-2579972D02*
G02X611988Y-2548984I30983J5D01*
G01X1028017Y-2549037D02*
G01X1108014Y-2549037D01*
G01X971972Y-2548992D02*
G01X891974Y-2548992D01*
G01X1028017Y-2691006D02*
G01X1108014Y-2691006D01*
G01X971972Y-2690957D02*
G01X891974Y-2690957D01*
G01X1138989Y-2580020D02*
G01X1138989Y-2660025D01*
G01X860997Y-2659972D02*
G01X860997Y-2579969D01*
G01X891979Y-2690957D02*
G02X860997Y-2659972I0J30983D01*
G01X860997Y-2579975D02*
G02X891979Y-2548992I30983J0D01*
G01X1108009Y-2549037D02*
G02X1138989Y-2580020I-3J-30983D01*
G01X1138989Y-2660018D02*
G02X1108009Y-2691006I-30983J-5D01*
G01X2131880Y-2524999D02*
G01X2094992Y-2524999D01*
G01X2301883Y-2524999D02*
G01X2238108Y-2524999D01*
G01X2444999Y-2524999D02*
G01X2408111Y-2524999D01*
G01X2544999Y-2419993D02*
G01X2444999Y-2419993D01*
G01X2544999Y-2419993D02*
G01X2544999Y-2159996D01*
G01X2444996Y-2159996D02*
G01X2544999Y-2159996D01*
G01X2408111Y-2054992D02*
G01X2444996Y-2054992D01*
G01X2238108Y-2054992D02*
G01X2301883Y-2054992D01*
G01X2094995Y-2054992D02*
G01X2131880Y-2054992D01*
G01X2094992Y-2524999D02*
G01X2094995Y-2054992D01*
G01X2444999Y-2524999D02*
G01X2444996Y-2054992D01*
G01X2320795Y-2404295D02*
G01X2181095Y-2404295D01*
G01X2181095Y-2404295D02*
G01X2181095Y-2328017D01*
G01X2181095Y-2252053D02*
G01X2181095Y-2175599D01*
G01X2181095Y-2175599D02*
G01X2333495Y-2175599D01*
G01X2333495Y-2175599D02*
G01X2333495Y-2226399D01*
G01X2333495Y-2226399D02*
G01X2231895Y-2226399D01*
G01X2231895Y-2226399D02*
G01X2231895Y-2353399D01*
G01X2231895Y-2353399D02*
G01X2333495Y-2353399D01*
G01X2333495Y-2353399D02*
G01X2333495Y-2404199D01*
G01X2333495Y-2404199D02*
G01X2320795Y-2404199D01*
G01X623623Y-425135D02*
G01X623623Y-462023D01*
G01X623623Y-255133D02*
G01X623623Y-318907D01*
G01X623623Y-112017D02*
G01X623623Y-148905D01*
G01X518617Y-12017D02*
G01X518617Y-112017D01*
G01X518617Y-12017D02*
G01X258620Y-12017D01*
G01X258620Y-112019D02*
G01X258620Y-12017D01*
G01X153617Y-148905D02*
G01X153617Y-112019D01*
G01X153617Y-318907D02*
G01X153617Y-255133D01*
G01X153617Y-462021D02*
G01X153617Y-425135D01*
G01X623623Y-462023D02*
G01X153617Y-462021D01*
G01X623623Y-112017D02*
G01X153617Y-112019D01*
G01X502920Y-236220D02*
G01X502920Y-375920D01*
G01X502920Y-375920D02*
G01X426641Y-375920D01*
G01X350677Y-375920D02*
G01X274223Y-375920D01*
G01X274223Y-375920D02*
G01X274223Y-223520D01*
G01X274223Y-223520D02*
G01X325023Y-223520D01*
G01X325023Y-223520D02*
G01X325023Y-325120D01*
G01X325023Y-325120D02*
G01X452023Y-325120D01*
G01X452023Y-325120D02*
G01X452023Y-223520D01*
G01X452023Y-223520D02*
G01X502823Y-223520D01*
G01X502823Y-223520D02*
G01X502823Y-236220D01*
G54D14*
G01X2199951Y-166975D02*
G01X2199951Y-109990D01*
G01X2199951Y-109990D02*
G01X1799957Y-109990D01*
G01X1799957Y-109990D02*
G01X1799957Y-166975D01*
G36*
G01X1854999Y-110000D02*
G01X1800000Y-110000D01*
G01X1800000Y-166985D01*
G01X1854999Y-110000D01*
G37*
G54D11*
G01X2288014Y-2909037D02*
G01X2368012Y-2909037D01*
G01X2231969Y-2908991D02*
G01X2151972Y-2908991D01*
G01X2288014Y-3051005D02*
G01X2368012Y-3051005D01*
G01X2231969Y-3050957D02*
G01X2151972Y-3050957D01*
G01X2398987Y-2940020D02*
G01X2398987Y-3020024D01*
G01X2120994Y-3019971D02*
G01X2120994Y-2939969D01*
G01X2151977Y-3050957D02*
G02X2120994Y-3019971I0J30983D01*
G01X2120994Y-2939974D02*
G02X2151977Y-2908991I30983J0D01*
G01X2368006Y-2909037D02*
G02X2398987Y-2940020I-3J-30983D01*
G01X2398987Y-3020017D02*
G02X2368006Y-3051005I-30983J-5D01*
G01X2412395Y-3520679D02*
G01X2412395Y-3315193D01*
G01X2107595Y-3715995D02*
G01X2107595Y-3924793D01*
G01X2107595Y-3924793D02*
G01X2412395Y-3924793D01*
G01X2412395Y-3924793D02*
G01X2412395Y-3719307D01*
G01X2412395Y-3315193D02*
G01X2107595Y-3315193D01*
G01X2107595Y-3315193D02*
G01X2107595Y-3523991D01*
G54D10*
G01X1867375Y-2523934D02*
G01X1771487Y-2523934D01*
G01X1771487Y-2523934D02*
G01X1771487Y-2656055D01*
G01X1771487Y-2656055D02*
G01X1867375Y-2656055D01*
G01X1952617Y-2523934D02*
G01X2048505Y-2523934D01*
G01X2048505Y-2523934D02*
G01X2048505Y-2656055D01*
G01X2048505Y-2656055D02*
G01X1952617Y-2656055D01*
G01X757377Y-773938D02*
G01X661490Y-773938D01*
G01X661490Y-773938D02*
G01X661490Y-906059D01*
G01X661490Y-906059D02*
G01X757377Y-906059D01*
G01X842620Y-773938D02*
G01X938507Y-773938D01*
G01X938507Y-773938D02*
G01X938507Y-906059D01*
G01X938507Y-906059D02*
G01X842620Y-906059D01*
G01X1816659Y-703560D02*
G01X1720771Y-703560D01*
G01X1720771Y-703560D02*
G01X1720771Y-835680D01*
G01X1720771Y-835680D02*
G01X1816659Y-835680D01*
G01X1901901Y-703560D02*
G01X1997789Y-703560D01*
G01X1997789Y-703560D02*
G01X1997789Y-835680D01*
G01X1997789Y-835680D02*
G01X1901901Y-835680D01*
G54D11*
G01X1702222Y-106403D02*
G01X1702222Y50541D01*
G01X1702222Y50541D02*
G01X807720Y50541D01*
G01X807720Y50541D02*
G01X802221Y50541D01*
G01X802221Y50541D02*
G01X802221Y-106403D01*
G01X1702222Y-328110D02*
G01X1702222Y-514398D01*
G01X802221Y-328110D02*
G01X802221Y-514398D01*
G01X318099Y-2931378D02*
G01X318099Y-2837094D01*
G01X318099Y-2837094D02*
G01X26200Y-2837094D01*
G01X318099Y-3058378D02*
G01X318099Y-3047609D01*
G01X318099Y-3185378D02*
G01X318099Y-3174609D01*
G01X318099Y-3312378D02*
G01X318099Y-3301609D01*
G01X26200Y-3522894D02*
G01X318099Y-3522894D01*
G01X318099Y-3522894D02*
G01X318099Y-3428609D01*
G01X26200Y-3522894D02*
G01X26200Y-2837094D01*

G04 Rect Start*
G54D14*
G01X397456Y-3877942D02*
G01X397456Y-3662042D01*
G01X562556Y-3662042D01*
G01X562556Y-3877942D01*
G01X397456Y-3877942D01*
G04 Rect End*

G04 Circle Start*
G54D11*
G01X655843Y-2569988D02*
G03X684139Y-2569988I14148J0D01*
G03X655843Y-2569988I-14148J0D01*
G54D14*
G01X416506Y-3833492D02*
G03X467306Y-3833492I25400J0D01*
G03X416506Y-3833492I-25400J0D01*
G54D16*
G01X692808Y-3649901D02*
G03X712823Y-3649901I10008J0D01*
G03X692808Y-3649901I-10008J0D01*
G54D13*
G01X2102536Y-386563D02*
G03X2132559Y-386563I15011J0D01*
G03X2102536Y-386563I-15011J0D01*
G54D11*
G01X249342Y-3472094D02*
G03X285257Y-3472094I17958J0D01*
G03X249342Y-3472094I-17958J0D01*
G04 Circle End*

M02*

