G04 Layer: TopSolderMaskLayer*
G04 EasyEDA Pro v2.2.45.4, 2026-04-26 19:59:05*
G04 Gerber Generator version 0.3*
G04 Scale: 100 percent, Rotated: No, Reflected: No*
G04 Dimensions in millimeters*
G04 Leading zeros omitted, absolute positions, 4 integers and 5 decimals*
G04 Generated by one-click*
%FSLAX45Y45*%
%MOMM*%
%AMRoundRect*1,1,$1,$2,$3*1,1,$1,$4,$5*1,1,$1,0-$2,0-$3*1,1,$1,0-$4,0-$5*20,1,$1,$2,$3,$4,$5,0*20,1,$1,$4,$5,0-$2,0-$3,0*20,1,$1,0-$2,0-$3,0-$4,0-$5,0*20,1,$1,0-$4,0-$5,$2,$3,0*4,1,4,$2,$3,$4,$5,0-$2,0-$3,0-$4,0-$5,$2,$3,0*%
%ADD10RoundRect,0.09131X-0.45514X-0.40514X-0.45514X0.40514*%
%ADD11RoundRect,0.09131X-0.40514X0.45514X0.40514X0.45514*%
%ADD12RoundRect,0.09138X-0.43711X-0.40835X-0.43711X0.40835*%
%ADD13RoundRect,0.09138X-0.40835X0.43711X0.40835X0.43711*%
%ADD14C,0.6016*%
%ADD15RoundRect,0.0804X-0.20834X0.40834X0.20834X0.40834*%
%ADD16RoundRect,0.08335X-0.20834X0.40834X0.20834X0.40834*%
%ADD17RoundRect,0.08335X-0.40834X-0.20834X-0.40834X0.20834*%
%ADD18RoundRect,0.09002X-0.405X0.405X0.405X0.405*%
%ADD19RoundRect,0.09288X-0.60357X0.60357X0.60357X0.60357*%
%ADD20RoundRect,0.08575X-0.45243X-0.23193X-0.45243X0.23193*%
%ADD21RoundRect,0.07882X-0.36139X-0.13639X-0.36139X0.13639*%
%ADD22RoundRect,0.08756X-0.27302X0.52952X0.27302X0.52952*%
%ADD23RoundRect,0.09618X-0.85271X0.85271X0.85271X0.85271*%
%ADD24C,1.8016*%
%ADD25RoundRect,0.09077X-0.38042X0.80541X0.38042X0.80541*%
%ADD26RoundRect,0.09077X-0.80541X-0.38042X-0.80541X0.38042*%
%ADD27RoundRect,0.09224X-0.45468X0.65468X0.45468X0.65468*%
%ADD28RoundRect,0.09017X-0.35571X0.65571X0.35571X0.65571*%
%ADD29RoundRect,0.0858X-0.23291X0.6579X0.23291X0.6579*%
%ADD30RoundRect,0.09562X-0.76499X0.76499X0.76499X0.76499*%
%ADD31C,1.6256*%
%ADD32RoundRect,0.08692X-0.25734X0.57734X0.25734X0.57734*%
%ADD33RoundRect,0.08109X-0.16026X0.58026X0.16026X0.58026*%
%ADD34O,1.1016X2.1016*%
%ADD35O,1.1016X1.9016*%
%ADD36C,2.1016*%
%ADD37RoundRect,0.08891X-0.80556X-0.35556X-0.80556X0.35556*%
G75*


G04 PolygonModel Start*
G36*
G01X2311716Y6061D02*
G01X2192929Y-112725D01*
G01X1815842Y-112725D01*
G01X1697056Y6061D01*
G01X2311716Y6061D01*
G37*

G04 Pad Start*
G54D10*
G01X2364740Y-504342D03*
G01X2364740Y-364338D03*
G01X2222500Y-636422D03*
G01X2222500Y-496418D03*
G01X683260Y-514198D03*
G01X683260Y-654202D03*
G54D11*
G01X1599994Y-3619993D03*
G01X1739999Y-3619993D03*
G54D10*
G01X170000Y-3649990D03*
G01X170000Y-3789995D03*
G54D11*
G01X399996Y-3529993D03*
G01X540001Y-3529993D03*
G54D12*
G01X2362200Y-227736D03*
G01X2362200Y-77064D03*
G01X563880Y-888136D03*
G01X563880Y-737464D03*
G54D13*
G01X1185334Y-3519993D03*
G01X1034661Y-3519993D03*
G01X1185334Y-3399993D03*
G01X1034661Y-3399993D03*
G54D14*
G01X1129998Y-869998D03*
G01X735288Y-107481D03*
G01X2405413Y-1458203D03*
G01X1219938Y-871296D03*
G54D16*
G01X704992Y-2447509D03*
G01X789981Y-2447509D03*
G01X874994Y-2447509D03*
G01X959983Y-2447509D03*
G01X1044997Y-2447509D03*
G01X1129985Y-2447509D03*
G01X1214999Y-2447509D03*
G01X1299987Y-2447509D03*
G01X1384976Y-2447509D03*
G01X1469989Y-2447509D03*
G01X1554978Y-2447509D03*
G01X1639992Y-2447509D03*
G01X1724980Y-2447509D03*
G01X1809994Y-2447509D03*
G01X1894982Y-2447509D03*
G54D17*
G01X2002500Y-2344995D03*
G01X2002500Y-2260007D03*
G01X2002500Y-2174993D03*
G01X2002500Y-2090004D03*
G01X2002500Y-2004991D03*
G01X2002500Y-1920002D03*
G01X2002500Y-1834988D03*
G01X2002500Y-1750000D03*
G01X2002500Y-1665012D03*
G01X2002500Y-1579998D03*
G01X2002500Y-1495009D03*
G01X2002500Y-1409996D03*
G01X2002500Y-1325007D03*
G01X2002500Y-1239993D03*
G01X2002500Y-1155005D03*
G54D16*
G01X1894982Y-1052491D03*
G01X1809994Y-1052491D03*
G01X1724980Y-1052491D03*
G01X1639992Y-1052491D03*
G01X1554978Y-1052491D03*
G01X1469989Y-1052491D03*
G01X1384976Y-1052491D03*
G01X1299987Y-1052491D03*
G01X1214999Y-1052491D03*
G01X1129985Y-1052491D03*
G01X1044997Y-1052491D03*
G01X959983Y-1052491D03*
G01X874994Y-1052491D03*
G01X789981Y-1052491D03*
G01X704992Y-1052491D03*
G54D17*
G01X597499Y-1155005D03*
G01X597499Y-1239993D03*
G01X597499Y-1325007D03*
G01X597499Y-1409996D03*
G01X597499Y-1495009D03*
G01X597499Y-1579998D03*
G01X597499Y-1665012D03*
G01X597499Y-1750000D03*
G01X597499Y-1834988D03*
G01X597499Y-1920002D03*
G01X597499Y-2004991D03*
G01X597499Y-2090004D03*
G01X597499Y-2174993D03*
G01X597499Y-2260007D03*
G01X597499Y-2344995D03*
G54D18*
G01X599989Y-2449999D03*
G01X599989Y-1050001D03*
G01X1999986Y-2449999D03*
G01X1999986Y-1050001D03*
G54D19*
G01X1134989Y-1914998D03*
G01X1134989Y-1750000D03*
G01X1134989Y-1585002D03*
G01X1299987Y-1914998D03*
G01X1299987Y-1750000D03*
G01X1299987Y-1585002D03*
G01X1464986Y-1914998D03*
G01X1464986Y-1750000D03*
G01X1464986Y-1585002D03*
G54D20*
G01X621942Y-3650003D03*
G01X621942Y-3729987D03*
G01X621942Y-3809997D03*
G01X621942Y-3889982D03*
G01X338046Y-3889982D03*
G01X338046Y-3809997D03*
G01X338046Y-3729987D03*
G01X338046Y-3650003D03*
G36*
G01X1718727Y-3926596D02*
G01X1603726Y-3926596D01*
G02X1598646Y-3921516I0J5080D01*
G01X1598646Y-3741517D01*
G02X1603726Y-3736437I5080J0D01*
G01X1733728Y-3736437D01*
G02X1738808Y-3741517I0J-5080D01*
G01X1738808Y-3906517D01*
G02X1737320Y-3910110I-5080J0D01*
G01X1722318Y-3925109D01*
G02X1718727Y-3926596I-3592J3592D01*
G37*
G54D21*
G01X1539999Y-3754986D03*
G01X1539999Y-3804999D03*
G01X1539999Y-3855011D03*
G01X1539999Y-3904999D03*
G01X1799994Y-3754986D03*
G01X1799994Y-3804999D03*
G01X1799994Y-3855011D03*
G01X1799994Y-3904999D03*
G54D22*
G01X2045716Y-641559D03*
G01X1855724Y-641559D03*
G01X1855724Y-391559D03*
G01X1950720Y-391559D03*
G01X2045716Y-391559D03*
G54D23*
G01X544998Y-3216994D03*
G54D24*
G01X544998Y-2962994D03*
G01X798998Y-3216994D03*
G01X798998Y-2962994D03*
G01X1052998Y-3216994D03*
G01X1052998Y-2962994D03*
G01X1306998Y-3216994D03*
G01X1306998Y-2962994D03*
G01X1560998Y-3216994D03*
G01X1560998Y-2962994D03*
G01X1814998Y-3216994D03*
G01X1814998Y-2962994D03*
G54D10*
G01X2400000Y-1679998D03*
G01X2400000Y-1820002D03*
G54D11*
G01X790001Y-2619995D03*
G01X649996Y-2619995D03*
G01X929996Y-2619995D03*
G01X1070000Y-2619995D03*
G54D25*
G01X2185007Y-2549995D03*
G01X2185007Y-2030006D03*
G01X2354984Y-2549995D03*
G01X2354984Y-2030006D03*
G54D26*
G01X648619Y-372008D03*
G01X128631Y-372008D03*
G01X648619Y-202032D03*
G01X128631Y-202032D03*
G54D27*
G01X2167503Y-250000D03*
G54D28*
G01X2042502Y-250000D03*
G54D29*
G01X1939998Y-250000D03*
G54D27*
G01X1832497Y-250000D03*
G54D11*
G01X2189993Y-2979994D03*
G01X2329998Y-2979994D03*
G54D30*
G01X2386995Y-3619993D03*
G54D31*
G01X2132995Y-3619993D03*
G54D13*
G01X1834660Y-2589995D03*
G01X1985333Y-2589995D03*
G01X724662Y-839998D03*
G01X875335Y-839998D03*
G01X1783944Y-769620D03*
G01X1934616Y-769620D03*
G54D32*
G01X932231Y-691985D03*
G01X1012215Y-691985D03*
G54D33*
G01X1077214Y-691985D03*
G01X1127252Y-692061D03*
G01X1177214Y-691985D03*
G01X1227226Y-691985D03*
G01X1277214Y-691985D03*
G01X1327226Y-691985D03*
G01X1377213Y-691985D03*
G01X1427226Y-692061D03*
G54D32*
G01X1492225Y-691985D03*
G01X1572209Y-691985D03*
G54D34*
G01X1684223Y-635241D03*
G01X820217Y-635267D03*
G54D35*
G01X820217Y-217259D03*
G01X1684223Y-217259D03*
G54D36*
G01X1099993Y-3759977D03*
G01X339140Y-642060D03*
G54D37*
G01X279999Y-3370494D03*
G01X279999Y-3243494D03*
G01X279999Y-3116494D03*
G01X279999Y-2989494D03*
G04 Pad End*

M02*

