G04 Layer: DrillDrawingLayer*
G04 EasyEDA Pro v2.2.45.4, 2026-04-26 19:59:05*
G04 Gerber Generator version 0.3*
G04 Scale: 100 percent, Rotated: No, Reflected: No*
G04 Dimensions in millimeters*
G04 Leading zeros omitted, absolute positions, 4 integers and 5 decimals*
G04 Generated by one-click*
%FSLAX45Y45*%
%MOMM*%
%AMIconRect*4,1,4,0.28,-0.28,-0.28,-0.28,-0.28,0.28,0.28,0.28,0.28,-0.28,0*4,0,4,0.233333,-0.233333,0.233333,0.233333,-0.233333,0.233333,-0.233333,-0.233333,0.233333,-0.233333,0*%
%AMIconTriangle*4,1,3,-0.339593,0.240473,0.339593,0.240473,0,-0.37884,-0.339593,0.240473,0*4,0,3,-0.265673,0.19404,0,-0.27342,0.266233,0.19404,-0.265673,0.19404,0*%
%AMIconStar6*4,1,12,0.12068,0.20888,0.298527,0.172713,0.241313,0,0.298527,-0.17206,0.12068,-0.208227,0,-0.344073,-0.120073,-0.208227,-0.298573,-0.17206,-0.240707,0,-0.298573,0.17206,-0.120073,0.20888,0,0.344073,0.12068,0.20888,0*4,0,12,-0.000467,0.273467,-0.090067,0.171733,-0.237533,0.136733,-0.193667,-0.007467,-0.237533,-0.1372,-0.090067,-0.171733,-0.000467,-0.273933,0.090067,-0.171733,0.237533,-0.1372,0.194133,0.007,0.237533,0.1372,0.090067,0.171267,-0.000467,0.273467,0*%
%AMIconStar4*4,1,8,-0.311733,0.311733,0,0.202533,0.311733,0.311733,0.202533,0,0.311733,-0.311733,0,-0.202533,-0.304407,-0.311733,-0.202533,0,-0.311733,0.311733,0*4,0,8,0.233333,-0.233333,0.1512,0,0.233333,0.233333,0,0.1512,-0.233333,0.233333,-0.1512,0,-0.233333,-0.233333,0,-0.1512,0.233333,-0.233333,0*%
%AMIconPlus*4,1,12,0.1736,-0.28,-0.1736,-0.28,-0.1736,-0.1736,-0.28,-0.1736,-0.28,0.1736,-0.1736,0.1736,-0.1736,0.28,0.1736,0.28,0.1736,0.1736,0.28,0.1736,0.28,-0.1736,0.1736,-0.1736,0.1736,-0.28,0*4,0,12,0.126933,-0.233333,0.126933,-0.126933,0.233333,-0.126933,0.233333,0.126933,0.126933,0.126933,0.126933,0.233333,-0.126933,0.233333,-0.126933,0.126933,-0.233333,0.126933,-0.233333,-0.126933,-0.126933,-0.126933,-0.126933,-0.233333,0.126933,-0.233333,0*%
%AMIconX*4,1,16,0.28,-0.28,0.076347,-0.28,0,-0.203653,-0.076347,-0.28,-0.28,-0.28,-0.28,-0.076347,-0.203653,0,-0.28,0.076347,-0.28,0.28,-0.076347,0.28,0,0.203653,0.076347,0.28,0.28,0.28,0.28,0.076347,0.203653,0,0.28,-0.076347,0.28,-0.28,0*4,0,16,0.23352,-0.23296,0.23352,-0.095853,0.137107,0.000093,0.23352,0.095853,0.23352,0.2331,0.095853,0.2331,0,0.137107,-0.095853,0.2331,-0.23352,0.2331,-0.23352,0.095853,-0.137107,0.000093,-0.23352,-0.095853,-0.23352,-0.23296,-0.095853,-0.23296,0,-0.137107,0.095853,-0.23296,0.23352,-0.23296,0*%
%AMIconDiamond*4,1,4,0,-0.364,-0.364,0,0,0.364,0.364,0,0,-0.364,0*4,0,4,0,-0.284807,0.284807,0,0,0.28504,-0.284807,0,0,-0.284807,0*%
%AMIconRect2*4,1,6,0.28,-0.28,-0.28,-0.28,-0.28,0.28,-0.23352,0.2331,-0.233333,-0.233333,0.23352,-0.233333,0.28,-0.28,0*4,1,6,0.28,-0.28,0.23352,-0.233333,0.23352,0.2331,-0.23352,0.2331,-0.28,0.28,0.28,0.28,0.28,-0.28,0*4,1,6,0.186853,-0.186667,-0.186667,-0.186667,-0.186667,0.186853,-0.14,0.140187,-0.14,-0.14,0.140187,-0.14,0.186853,-0.186667,0*4,1,6,0.186853,-0.186667,0.140187,-0.14,0.140187,0.140187,-0.14,0.140187,-0.186667,0.186853,0.186853,0.186853,0.186853,-0.186667,0*%
%AMCharA*4,1,8,-0.170893,-0.26096,-0.21448,-0.244347,-0.021187,0.26096,0.0224,0.26096,0.21448,-0.244347,0.170893,-0.26096,0.10696,-0.09268,-0.106587,-0.09268,-0.170893,-0.26096,0*4,0,3,-0.088667,-0.046013,0.089133,-0.046013,0.000467,0.18732,-0.088667,-0.046013,0*%
%ADD10IconRect*%
%ADD11C,0.616X0.522667*%
%ADD12IconTriangle*%
%ADD13IconStar6*%
%ADD14IconStar4*%
%ADD15IconPlus*%
%ADD16IconX*%
%ADD17IconDiamond*%
%ADD18IconRect2*%
%ADD19CharA*%
G75*


G04 Drill Drawing Start*
G54D10*
G01X2222500Y-795106D03*
G54D11*
G01X1200000Y-2100000D03*
G01X2400000Y-1529118D03*
G54D12*
G01X2132995Y-3619993D03*
G01X2386995Y-3619993D03*
G54D13*
G01X820217Y-635267D03*
G01X1684223Y-635241D03*
G54D14*
G01X820217Y-217259D03*
G01X1684223Y-217259D03*
G54D15*
G01X339140Y-642060D03*
G01X1099993Y-3759977D03*
G54D16*
G01X963219Y-585254D03*
G01X1541221Y-585254D03*
G54D17*
G01X388625Y-424510D03*
G01X388625Y-149530D03*
G01X2132505Y-2290000D03*
G01X2407486Y-2290000D03*
G54D18*
G01X544998Y-3216994D03*
G01X544998Y-2962994D03*
G01X798998Y-3216994D03*
G01X798998Y-2962994D03*
G01X1052998Y-3216994D03*
G01X1052998Y-2962994D03*
G01X1306998Y-3216994D03*
G01X1306998Y-2962994D03*
G01X1560998Y-3216994D03*
G01X1560998Y-2962994D03*
G01X1814998Y-3216994D03*
G01X1814998Y-2962994D03*
G54D19*
G01X232445Y-3789985D03*
G01X563880Y-836450D03*
G01X578015Y-3445200D03*
G01X673362Y-3594985D03*
G01X698500Y-2184400D03*
G01X700000Y-2300000D03*
G01X813812Y-2184400D03*
G01X850000Y-3927480D03*
G01X880000Y-3750000D03*
G01X975929Y-3879984D03*
G01X1000000Y-2300000D03*
G01X1009433Y-3586053D03*
G01X1072313Y-570180D03*
G01X1134786Y-1833880D03*
G01X1134986Y-1667920D03*
G01X1219083Y-1584999D03*
G01X1221978Y-1915001D03*
G01X1221978Y-1751871D03*
G01X1253992Y-3476053D03*
G01X1299987Y-1667920D03*
G01X1300616Y-1833880D03*
G01X1384091Y-1915001D03*
G01X1384091Y-1750000D03*
G01X1384091Y-1584999D03*
G01X1424940Y-566420D03*
G01X1456463Y-1667920D03*
G01X1465580Y-1833880D03*
G01X1533992Y-3693985D03*
G01X1600000Y-2240000D03*
G01X1687668Y-2241450D03*
G01X1766020Y-3671994D03*
G01X1773780Y-474560D03*
G01X1800893Y-2236300D03*
G01X1865924Y-512439D03*
G01X1879315Y-3883111D03*
G01X1884368Y-3749799D03*
G01X1910000Y-2240000D03*
G01X1949765Y-512797D03*
G01X2042146Y-514325D03*
G01X2067591Y-2825558D03*
G01X2086909Y-2743496D03*
G01X2086909Y-2589995D03*
G01X2181095Y-2404295D03*
G01X2186869Y-366323D03*
G01X2245443Y-176097D03*
G01X2253608Y-365727D03*
G01X2326640Y-609600D03*
G01X2355200Y-856181D03*
G01X2381665Y-760545D03*
G01X2435860Y-66840D03*
G04 Drill Drawing End*

M02*

