G04 Layer: TopPasteMaskLayer*
G04 EasyEDA Pro v2.2.45.4, 2026-04-26 19:59:05*
G04 Gerber Generator version 0.3*
G04 Scale: 100 percent, Rotated: No, Reflected: No*
G04 Dimensions in millimeters*
G04 Leading zeros omitted, absolute positions, 4 integers and 5 decimals*
G04 Generated by one-click*
%FSLAX45Y45*%
%MOMM*%
%AMPolygonMacro1*4,1,5,-0.65001,0.9,0.65001,0.9,0.65001,-0.75001,0.5,-0.9,-0.65001,-0.9,-0.65001,0.9,0*%
%ADD10R,0.9X0.8*%
%ADD11R,0.8X0.9*%
%ADD12C,0.5*%
%ADD13R,0.4X0.8*%
%ADD14R,0.8X0.4*%
%ADD15R,0.8X0.8*%
%ADD16R,1.2X1.2*%
%ADD17R,0.8910X0.44801*%
%ADD18R,0.889X0.44801*%
%ADD19PolygonMacro1*%
%ADD20R,0.7X0.25001*%
%ADD21R,0.532X1.04501*%
%ADD22R,0.75001X1.6*%
%ADD23R,1.6X0.75001*%
%ADD24R,0.9X1.3*%
%ADD25R,0.7X1.3*%
%ADD26R,0.45001X1.3*%
%ADD27R,1.6X0.7*%
G75*


G04 PolygonModel Start*
G36*
G01X2407199Y-271902D02*
G01X2407199Y-191902D01*
G01X2402197Y-186901D01*
G01X2379401Y-186901D01*
G01X2379401Y-223901D01*
G01X2346401Y-223901D01*
G01X2346401Y-186901D01*
G01X2322198Y-186901D01*
G01X2317199Y-191902D01*
G01X2317199Y-271902D01*
G01X2322198Y-276901D01*
G01X2402197Y-276901D01*
G01X2407199Y-271902D01*
G37*
G36*
G01X2317201Y-32898D02*
G01X2317201Y-112898D01*
G01X2322203Y-117899D01*
G01X2344999Y-117899D01*
G01X2344999Y-80899D01*
G01X2377999Y-80899D01*
G01X2377999Y-117899D01*
G01X2402202Y-117899D01*
G01X2407201Y-112898D01*
G01X2407201Y-32898D01*
G01X2402202Y-27899D01*
G01X2322203Y-27899D01*
G01X2317201Y-32898D01*
G37*
G36*
G01X608879Y-932302D02*
G01X608879Y-852302D01*
G01X603877Y-847301D01*
G01X581081Y-847301D01*
G01X581081Y-884301D01*
G01X548081Y-884301D01*
G01X548081Y-847301D01*
G01X523878Y-847301D01*
G01X518879Y-852302D01*
G01X518879Y-932302D01*
G01X523878Y-937301D01*
G01X603877Y-937301D01*
G01X608879Y-932302D01*
G37*
G36*
G01X518881Y-693298D02*
G01X518881Y-773298D01*
G01X523883Y-778299D01*
G01X546679Y-778299D01*
G01X546679Y-741299D01*
G01X579679Y-741299D01*
G01X579679Y-778299D01*
G01X603882Y-778299D01*
G01X608881Y-773298D01*
G01X608881Y-693298D01*
G01X603882Y-688299D01*
G01X523883Y-688299D01*
G01X518881Y-693298D01*
G37*
G36*
G01X1229500Y-3474994D02*
G01X1149500Y-3474994D01*
G01X1144499Y-3479996D01*
G01X1144499Y-3502792D01*
G01X1181499Y-3502792D01*
G01X1181499Y-3535792D01*
G01X1144499Y-3535792D01*
G01X1144499Y-3559995D01*
G01X1149500Y-3564994D01*
G01X1229500Y-3564994D01*
G01X1234498Y-3559995D01*
G01X1234498Y-3479996D01*
G01X1229500Y-3474994D01*
G37*
G36*
G01X990496Y-3564992D02*
G01X1070496Y-3564992D01*
G01X1075497Y-3559990D01*
G01X1075497Y-3537194D01*
G01X1038497Y-3537194D01*
G01X1038497Y-3504194D01*
G01X1075497Y-3504194D01*
G01X1075497Y-3479990D01*
G01X1070496Y-3474992D01*
G01X990496Y-3474992D01*
G01X985497Y-3479990D01*
G01X985497Y-3559990D01*
G01X990496Y-3564992D01*
G37*
G36*
G01X1229500Y-3354995D02*
G01X1149500Y-3354995D01*
G01X1144499Y-3359996D01*
G01X1144499Y-3382792D01*
G01X1181499Y-3382792D01*
G01X1181499Y-3415792D01*
G01X1144499Y-3415792D01*
G01X1144499Y-3439996D01*
G01X1149500Y-3444994D01*
G01X1229500Y-3444994D01*
G01X1234498Y-3439996D01*
G01X1234498Y-3359996D01*
G01X1229500Y-3354995D01*
G37*
G36*
G01X990496Y-3444992D02*
G01X1070496Y-3444992D01*
G01X1075497Y-3439991D01*
G01X1075497Y-3417194D01*
G01X1038497Y-3417194D01*
G01X1038497Y-3384194D01*
G01X1075497Y-3384194D01*
G01X1075497Y-3359991D01*
G01X1070496Y-3354992D01*
G01X990496Y-3354992D01*
G01X985497Y-3359991D01*
G01X985497Y-3439991D01*
G01X990496Y-3444992D01*
G37*
G36*
G01X1790494Y-2634993D02*
G01X1870494Y-2634993D01*
G01X1875495Y-2629992D01*
G01X1875495Y-2607196D01*
G01X1838495Y-2607196D01*
G01X1838495Y-2574196D01*
G01X1875495Y-2574196D01*
G01X1875495Y-2549992D01*
G01X1870494Y-2544994D01*
G01X1790494Y-2544994D01*
G01X1785496Y-2549992D01*
G01X1785496Y-2629992D01*
G01X1790494Y-2634993D01*
G37*
G36*
G01X2029498Y-2544996D02*
G01X1949498Y-2544996D01*
G01X1944497Y-2549997D01*
G01X1944497Y-2572794D01*
G01X1981497Y-2572794D01*
G01X1981497Y-2605794D01*
G01X1944497Y-2605794D01*
G01X1944497Y-2629997D01*
G01X1949498Y-2634996D01*
G01X2029498Y-2634996D01*
G01X2034497Y-2629997D01*
G01X2034497Y-2549997D01*
G01X2029498Y-2544996D01*
G37*
G36*
G01X680496Y-884997D02*
G01X760496Y-884997D01*
G01X765498Y-879996D01*
G01X765498Y-857199D01*
G01X728497Y-857199D01*
G01X728497Y-824200D01*
G01X765498Y-824200D01*
G01X765498Y-799996D01*
G01X760496Y-794997D01*
G01X680496Y-794997D01*
G01X675498Y-799996D01*
G01X675498Y-879996D01*
G01X680496Y-884997D01*
G37*
G36*
G01X919500Y-795000D02*
G01X839500Y-795000D01*
G01X834499Y-800001D01*
G01X834499Y-822797D01*
G01X871499Y-822797D01*
G01X871499Y-855797D01*
G01X834499Y-855797D01*
G01X834499Y-880001D01*
G01X839500Y-884999D01*
G01X919500Y-884999D01*
G01X924499Y-880001D01*
G01X924499Y-800001D01*
G01X919500Y-795000D01*
G37*
G36*
G01X1739778Y-814619D02*
G01X1819778Y-814619D01*
G01X1824779Y-809617D01*
G01X1824779Y-786821D01*
G01X1787779Y-786821D01*
G01X1787779Y-753821D01*
G01X1824779Y-753821D01*
G01X1824779Y-729618D01*
G01X1819778Y-724619D01*
G01X1739778Y-724619D01*
G01X1734779Y-729618D01*
G01X1734779Y-809617D01*
G01X1739778Y-814619D01*
G37*
G36*
G01X1978782Y-724621D02*
G01X1898782Y-724621D01*
G01X1893781Y-729623D01*
G01X1893781Y-752419D01*
G01X1930781Y-752419D01*
G01X1930781Y-785419D01*
G01X1893781Y-785419D01*
G01X1893781Y-809622D01*
G01X1898782Y-814621D01*
G01X1978782Y-814621D01*
G01X1983781Y-809622D01*
G01X1983781Y-729623D01*
G01X1978782Y-724621D01*
G37*
G36*
G01X957222Y-748985D02*
G01X907219Y-748985D01*
G01X907219Y-634985D01*
G01X957222Y-634985D01*
G01X957222Y-748985D01*
G37*
G36*
G01X1037222Y-748985D02*
G01X987219Y-748985D01*
G01X987219Y-634985D01*
G01X1037222Y-634985D01*
G01X1037222Y-748985D01*
G37*
G36*
G01X1092213Y-748972D02*
G01X1062213Y-748972D01*
G01X1062213Y-634972D01*
G01X1092213Y-634972D01*
G01X1092213Y-748972D01*
G37*
G36*
G01X1142251Y-749074D02*
G01X1112251Y-749074D01*
G01X1112251Y-635074D01*
G01X1142251Y-635074D01*
G01X1142251Y-749074D01*
G37*
G36*
G01X1192213Y-748972D02*
G01X1162213Y-748972D01*
G01X1162213Y-634972D01*
G01X1192213Y-634972D01*
G01X1192213Y-748972D01*
G37*
G36*
G01X1242225Y-748972D02*
G01X1212225Y-748972D01*
G01X1212225Y-634972D01*
G01X1242225Y-634972D01*
G01X1242225Y-748972D01*
G37*
G36*
G01X1292212Y-748972D02*
G01X1262212Y-748972D01*
G01X1262212Y-634972D01*
G01X1292212Y-634972D01*
G01X1292212Y-748972D01*
G37*
G36*
G01X1342225Y-748972D02*
G01X1312225Y-748972D01*
G01X1312225Y-634972D01*
G01X1342225Y-634972D01*
G01X1342225Y-748972D01*
G37*
G36*
G01X1392212Y-748972D02*
G01X1362212Y-748972D01*
G01X1362212Y-634972D01*
G01X1392212Y-634972D01*
G01X1392212Y-748972D01*
G37*
G36*
G01X1442225Y-749074D02*
G01X1412225Y-749074D01*
G01X1412225Y-635074D01*
G01X1442225Y-635074D01*
G01X1442225Y-749074D01*
G37*
G36*
G01X1517221Y-748985D02*
G01X1467218Y-748985D01*
G01X1467218Y-634985D01*
G01X1517221Y-634985D01*
G01X1517221Y-748985D01*
G37*
G36*
G01X1597221Y-748985D02*
G01X1547221Y-748985D01*
G01X1547221Y-634985D01*
G01X1597221Y-634985D01*
G01X1597221Y-748985D01*
G37*
G36*
G01X816480Y-735127D02*
G01X818970Y-735251D01*
G01X821464Y-735251D01*
G01X823953Y-735127D01*
G01X826435Y-734878D01*
G01X828899Y-734507D01*
G01X831342Y-734012D01*
G01X833758Y-733397D01*
G01X836140Y-732663D01*
G01X838484Y-731810D01*
G01X840781Y-730842D01*
G01X843029Y-729760D01*
G01X845215Y-728569D01*
G01X847344Y-727268D01*
G01X849404Y-725863D01*
G01X851390Y-724357D01*
G01X853300Y-722754D01*
G01X855129Y-721060D01*
G01X856869Y-719275D01*
G01X858520Y-717405D01*
G01X860074Y-715457D01*
G01X861530Y-713433D01*
G01X862881Y-711337D01*
G01X864128Y-709178D01*
G01X865266Y-706961D01*
G01X866290Y-704687D01*
G01X867202Y-702368D01*
G01X867994Y-700004D01*
G01X868670Y-697603D01*
G01X869226Y-695175D01*
G01X869658Y-692719D01*
G01X869968Y-690245D01*
G01X870156Y-687758D01*
G01X870217Y-685267D01*
G01X870217Y-585267D01*
G01X870156Y-582775D01*
G01X869968Y-580288D01*
G01X869658Y-577814D01*
G01X869226Y-575358D01*
G01X868670Y-572930D01*
G01X867994Y-570530D01*
G01X867202Y-568165D01*
G01X866290Y-565846D01*
G01X865266Y-563573D01*
G01X864128Y-561355D01*
G01X862881Y-559196D01*
G01X861530Y-557101D01*
G01X860074Y-555076D01*
G01X858520Y-553128D01*
G01X856869Y-551259D01*
G01X855129Y-549473D01*
G01X853300Y-547779D01*
G01X851390Y-546176D01*
G01X849404Y-544670D01*
G01X847344Y-543265D01*
G01X845215Y-541965D01*
G01X843029Y-540774D01*
G01X840781Y-539692D01*
G01X838484Y-538724D01*
G01X836140Y-537870D01*
G01X833758Y-537136D01*
G01X831342Y-536522D01*
G01X828899Y-536026D01*
G01X826435Y-535656D01*
G01X823953Y-535407D01*
G01X821464Y-535282D01*
G01X818970Y-535282D01*
G01X816480Y-535407D01*
G01X813999Y-535656D01*
G01X811535Y-536026D01*
G01X809092Y-536522D01*
G01X806676Y-537136D01*
G01X804294Y-537870D01*
G01X801949Y-538724D01*
G01X799653Y-539692D01*
G01X797405Y-540774D01*
G01X795216Y-541965D01*
G01X793090Y-543265D01*
G01X791030Y-544670D01*
G01X789043Y-546176D01*
G01X787133Y-547779D01*
G01X785305Y-549473D01*
G01X783565Y-551259D01*
G01X781914Y-553128D01*
G01X780359Y-555076D01*
G01X778904Y-557101D01*
G01X777552Y-559196D01*
G01X776305Y-561355D01*
G01X775167Y-563573D01*
G01X774144Y-565846D01*
G01X773232Y-568165D01*
G01X772439Y-570530D01*
G01X771764Y-572930D01*
G01X771208Y-575358D01*
G01X770776Y-577814D01*
G01X770466Y-580288D01*
G01X770278Y-582775D01*
G01X770217Y-585267D01*
G01X770217Y-685267D01*
G01X770278Y-687758D01*
G01X770466Y-690245D01*
G01X770776Y-692719D01*
G01X771208Y-695175D01*
G01X771764Y-697603D01*
G01X772439Y-700004D01*
G01X773232Y-702368D01*
G01X774144Y-704687D01*
G01X775167Y-706961D01*
G01X776305Y-709178D01*
G01X777552Y-711337D01*
G01X778904Y-713433D01*
G01X780359Y-715457D01*
G01X781914Y-717405D01*
G01X783565Y-719275D01*
G01X785305Y-721060D01*
G01X787133Y-722754D01*
G01X789043Y-724357D01*
G01X791030Y-725863D01*
G01X793090Y-727268D01*
G01X795216Y-728569D01*
G01X797405Y-729760D01*
G01X799653Y-730842D01*
G01X801949Y-731810D01*
G01X804294Y-732663D01*
G01X806676Y-733397D01*
G01X809092Y-734012D01*
G01X811535Y-734507D01*
G01X813999Y-734878D01*
G01X816480Y-735127D01*
G37*
G36*
G01X1680487Y-735101D02*
G01X1682976Y-735226D01*
G01X1685470Y-735226D01*
G01X1687960Y-735101D01*
G01X1690441Y-734852D01*
G01X1692905Y-734482D01*
G01X1695348Y-733986D01*
G01X1697764Y-733372D01*
G01X1700146Y-732638D01*
G01X1702491Y-731784D01*
G01X1704787Y-730816D01*
G01X1707035Y-729734D01*
G01X1709222Y-728543D01*
G01X1711350Y-727243D01*
G01X1713410Y-725838D01*
G01X1715397Y-724332D01*
G01X1717307Y-722729D01*
G01X1719136Y-721035D01*
G01X1720875Y-719249D01*
G01X1722526Y-717380D01*
G01X1724081Y-715432D01*
G01X1725536Y-713407D01*
G01X1726888Y-711312D01*
G01X1728135Y-709153D01*
G01X1729273Y-706935D01*
G01X1730296Y-704662D01*
G01X1731208Y-702343D01*
G01X1732001Y-699978D01*
G01X1732676Y-697578D01*
G01X1733233Y-695150D01*
G01X1733664Y-692694D01*
G01X1733974Y-690220D01*
G01X1734162Y-687733D01*
G01X1734223Y-685241D01*
G01X1734223Y-585241D01*
G01X1734162Y-582750D01*
G01X1733974Y-580263D01*
G01X1733664Y-577789D01*
G01X1733233Y-575333D01*
G01X1732676Y-572905D01*
G01X1732001Y-570504D01*
G01X1731208Y-568140D01*
G01X1730296Y-565821D01*
G01X1729273Y-563547D01*
G01X1728135Y-561330D01*
G01X1726888Y-559171D01*
G01X1725536Y-557075D01*
G01X1724081Y-555051D01*
G01X1722526Y-553103D01*
G01X1720875Y-551233D01*
G01X1719136Y-549448D01*
G01X1717307Y-547754D01*
G01X1715397Y-546151D01*
G01X1713410Y-544645D01*
G01X1711350Y-543240D01*
G01X1709222Y-541939D01*
G01X1707035Y-540748D01*
G01X1704787Y-539666D01*
G01X1702491Y-538698D01*
G01X1700146Y-537845D01*
G01X1697764Y-537111D01*
G01X1695348Y-536496D01*
G01X1692905Y-536001D01*
G01X1690441Y-535630D01*
G01X1687960Y-535381D01*
G01X1685470Y-535257D01*
G01X1682976Y-535257D01*
G01X1680487Y-535381D01*
G01X1678005Y-535630D01*
G01X1675541Y-536001D01*
G01X1673098Y-536496D01*
G01X1670682Y-537111D01*
G01X1668300Y-537845D01*
G01X1665956Y-538698D01*
G01X1663659Y-539666D01*
G01X1661411Y-540748D01*
G01X1659222Y-541939D01*
G01X1657096Y-543240D01*
G01X1655036Y-544645D01*
G01X1653050Y-546151D01*
G01X1651140Y-547754D01*
G01X1649311Y-549448D01*
G01X1647571Y-551233D01*
G01X1645920Y-553103D01*
G01X1644366Y-555051D01*
G01X1642910Y-557075D01*
G01X1641559Y-559171D01*
G01X1640312Y-561330D01*
G01X1639174Y-563547D01*
G01X1638150Y-565821D01*
G01X1637238Y-568140D01*
G01X1636446Y-570504D01*
G01X1635770Y-572905D01*
G01X1635214Y-575333D01*
G01X1634782Y-577789D01*
G01X1634472Y-580263D01*
G01X1634284Y-582750D01*
G01X1634223Y-585241D01*
G01X1634223Y-685241D01*
G01X1634284Y-687733D01*
G01X1634472Y-690220D01*
G01X1634782Y-692694D01*
G01X1635214Y-695150D01*
G01X1635770Y-697578D01*
G01X1636446Y-699978D01*
G01X1637238Y-702343D01*
G01X1638150Y-704662D01*
G01X1639174Y-706935D01*
G01X1640312Y-709153D01*
G01X1641559Y-711312D01*
G01X1642910Y-713407D01*
G01X1644366Y-715432D01*
G01X1645920Y-717380D01*
G01X1647571Y-719249D01*
G01X1649311Y-721035D01*
G01X1651140Y-722729D01*
G01X1653050Y-724332D01*
G01X1655036Y-725838D01*
G01X1657096Y-727243D01*
G01X1659222Y-728543D01*
G01X1661411Y-729734D01*
G01X1663659Y-730816D01*
G01X1665956Y-731784D01*
G01X1668300Y-732638D01*
G01X1670682Y-733372D01*
G01X1673098Y-733986D01*
G01X1675541Y-734482D01*
G01X1678005Y-734852D01*
G01X1680487Y-735101D01*
G37*
G36*
G01X816480Y-307119D02*
G01X818970Y-307243D01*
G01X821464Y-307243D01*
G01X823953Y-307119D01*
G01X826435Y-306870D01*
G01X828899Y-306499D01*
G01X831342Y-306004D01*
G01X833758Y-305389D01*
G01X836140Y-304655D01*
G01X838484Y-303802D01*
G01X840781Y-302834D01*
G01X843029Y-301752D01*
G01X845215Y-300561D01*
G01X847344Y-299260D01*
G01X849404Y-297856D01*
G01X851390Y-296349D01*
G01X853300Y-294747D01*
G01X855129Y-293052D01*
G01X856869Y-291267D01*
G01X858520Y-289397D01*
G01X860074Y-287449D01*
G01X861530Y-285425D01*
G01X862881Y-283329D01*
G01X864128Y-281170D01*
G01X865266Y-278953D01*
G01X866290Y-276680D01*
G01X867202Y-274361D01*
G01X867994Y-271996D01*
G01X868670Y-269596D01*
G01X869226Y-267167D01*
G01X869658Y-264711D01*
G01X869968Y-262237D01*
G01X870156Y-259751D01*
G01X870217Y-257259D01*
G01X870217Y-177259D01*
G01X870156Y-174767D01*
G01X869968Y-172281D01*
G01X869658Y-169807D01*
G01X869226Y-167350D01*
G01X868670Y-164922D01*
G01X867994Y-162522D01*
G01X867202Y-160157D01*
G01X866290Y-157838D01*
G01X865266Y-155565D01*
G01X864128Y-153347D01*
G01X862881Y-151188D01*
G01X861530Y-149093D01*
G01X860074Y-147069D01*
G01X858520Y-145120D01*
G01X856869Y-143251D01*
G01X855129Y-141465D01*
G01X853300Y-139771D01*
G01X851390Y-138168D01*
G01X849404Y-136662D01*
G01X847344Y-135258D01*
G01X845215Y-133957D01*
G01X843029Y-132766D01*
G01X840781Y-131684D01*
G01X838484Y-130716D01*
G01X836140Y-129863D01*
G01X833758Y-129129D01*
G01X831342Y-128514D01*
G01X828899Y-128019D01*
G01X826435Y-127648D01*
G01X823953Y-127399D01*
G01X821464Y-127274D01*
G01X818970Y-127274D01*
G01X816480Y-127399D01*
G01X813999Y-127648D01*
G01X811535Y-128019D01*
G01X809092Y-128514D01*
G01X806676Y-129129D01*
G01X804294Y-129863D01*
G01X801949Y-130716D01*
G01X799653Y-131684D01*
G01X797405Y-132766D01*
G01X795216Y-133957D01*
G01X793090Y-135258D01*
G01X791030Y-136662D01*
G01X789043Y-138168D01*
G01X787133Y-139771D01*
G01X785305Y-141465D01*
G01X783565Y-143251D01*
G01X781914Y-145120D01*
G01X780359Y-147069D01*
G01X778904Y-149093D01*
G01X777552Y-151188D01*
G01X776305Y-153347D01*
G01X775167Y-155565D01*
G01X774144Y-157838D01*
G01X773232Y-160157D01*
G01X772439Y-162522D01*
G01X771764Y-164922D01*
G01X771208Y-167350D01*
G01X770776Y-169807D01*
G01X770466Y-172281D01*
G01X770278Y-174767D01*
G01X770217Y-177259D01*
G01X770217Y-257259D01*
G01X770278Y-259751D01*
G01X770466Y-262237D01*
G01X770776Y-264711D01*
G01X771208Y-267167D01*
G01X771764Y-269596D01*
G01X772439Y-271996D01*
G01X773232Y-274361D01*
G01X774144Y-276680D01*
G01X775167Y-278953D01*
G01X776305Y-281170D01*
G01X777552Y-283329D01*
G01X778904Y-285425D01*
G01X780359Y-287449D01*
G01X781914Y-289397D01*
G01X783565Y-291267D01*
G01X785305Y-293052D01*
G01X787133Y-294747D01*
G01X789043Y-296349D01*
G01X791030Y-297856D01*
G01X793090Y-299260D01*
G01X795216Y-300561D01*
G01X797405Y-301752D01*
G01X799653Y-302834D01*
G01X801949Y-303802D01*
G01X804294Y-304655D01*
G01X806676Y-305389D01*
G01X809092Y-306004D01*
G01X811535Y-306499D01*
G01X813999Y-306870D01*
G01X816480Y-307119D01*
G37*
G36*
G01X1680487Y-307119D02*
G01X1682976Y-307243D01*
G01X1685470Y-307243D01*
G01X1687960Y-307119D01*
G01X1690441Y-306870D01*
G01X1692905Y-306499D01*
G01X1695348Y-306004D01*
G01X1697764Y-305389D01*
G01X1700146Y-304655D01*
G01X1702491Y-303802D01*
G01X1704787Y-302834D01*
G01X1707035Y-301752D01*
G01X1709222Y-300561D01*
G01X1711350Y-299260D01*
G01X1713410Y-297856D01*
G01X1715397Y-296349D01*
G01X1717307Y-294747D01*
G01X1719136Y-293052D01*
G01X1720875Y-291267D01*
G01X1722526Y-289397D01*
G01X1724081Y-287449D01*
G01X1725536Y-285425D01*
G01X1726888Y-283329D01*
G01X1728135Y-281170D01*
G01X1729273Y-278953D01*
G01X1730296Y-276680D01*
G01X1731208Y-274361D01*
G01X1732001Y-271996D01*
G01X1732676Y-269596D01*
G01X1733233Y-267167D01*
G01X1733664Y-264711D01*
G01X1733974Y-262237D01*
G01X1734162Y-259751D01*
G01X1734223Y-257259D01*
G01X1734223Y-177259D01*
G01X1734162Y-174767D01*
G01X1733974Y-172281D01*
G01X1733664Y-169807D01*
G01X1733233Y-167350D01*
G01X1732676Y-164922D01*
G01X1732001Y-162522D01*
G01X1731208Y-160157D01*
G01X1730296Y-157838D01*
G01X1729273Y-155565D01*
G01X1728135Y-153347D01*
G01X1726888Y-151188D01*
G01X1725536Y-149093D01*
G01X1724081Y-147069D01*
G01X1722526Y-145120D01*
G01X1720875Y-143251D01*
G01X1719136Y-141465D01*
G01X1717307Y-139771D01*
G01X1715397Y-138168D01*
G01X1713410Y-136662D01*
G01X1711350Y-135258D01*
G01X1709222Y-133957D01*
G01X1707035Y-132766D01*
G01X1704787Y-131684D01*
G01X1702491Y-130716D01*
G01X1700146Y-129863D01*
G01X1697764Y-129129D01*
G01X1695348Y-128514D01*
G01X1692905Y-128019D01*
G01X1690441Y-127648D01*
G01X1687960Y-127399D01*
G01X1685470Y-127274D01*
G01X1682976Y-127274D01*
G01X1680487Y-127399D01*
G01X1678005Y-127648D01*
G01X1675541Y-128019D01*
G01X1673098Y-128514D01*
G01X1670682Y-129129D01*
G01X1668300Y-129863D01*
G01X1665956Y-130716D01*
G01X1663659Y-131684D01*
G01X1661411Y-132766D01*
G01X1659222Y-133957D01*
G01X1657096Y-135258D01*
G01X1655036Y-136662D01*
G01X1653050Y-138168D01*
G01X1651140Y-139771D01*
G01X1649311Y-141465D01*
G01X1647571Y-143251D01*
G01X1645920Y-145120D01*
G01X1644366Y-147069D01*
G01X1642910Y-149093D01*
G01X1641559Y-151188D01*
G01X1640312Y-153347D01*
G01X1639174Y-155565D01*
G01X1638150Y-157838D01*
G01X1637238Y-160157D01*
G01X1636446Y-162522D01*
G01X1635770Y-164922D01*
G01X1635214Y-167350D01*
G01X1634782Y-169807D01*
G01X1634472Y-172281D01*
G01X1634284Y-174767D01*
G01X1634223Y-177259D01*
G01X1634223Y-257259D01*
G01X1634284Y-259751D01*
G01X1634472Y-262237D01*
G01X1634782Y-264711D01*
G01X1635214Y-267167D01*
G01X1635770Y-269596D01*
G01X1636446Y-271996D01*
G01X1637238Y-274361D01*
G01X1638150Y-276680D01*
G01X1639174Y-278953D01*
G01X1640312Y-281170D01*
G01X1641559Y-283329D01*
G01X1642910Y-285425D01*
G01X1644366Y-287449D01*
G01X1645920Y-289397D01*
G01X1647571Y-291267D01*
G01X1649311Y-293052D01*
G01X1651140Y-294747D01*
G01X1653050Y-296349D01*
G01X1655036Y-297856D01*
G01X1657096Y-299260D01*
G01X1659222Y-300561D01*
G01X1661411Y-301752D01*
G01X1663659Y-302834D01*
G01X1665956Y-303802D01*
G01X1668300Y-304655D01*
G01X1670682Y-305389D01*
G01X1673098Y-306004D01*
G01X1675541Y-306499D01*
G01X1678005Y-306870D01*
G01X1680487Y-307119D01*
G37*

G04 Pad Start*
G54D10*
G01X2364740Y-504342D03*
G01X2364740Y-364338D03*
G01X2222500Y-636422D03*
G01X2222500Y-496418D03*
G01X683260Y-514198D03*
G01X683260Y-654202D03*
G54D11*
G01X1599994Y-3619993D03*
G01X1739999Y-3619993D03*
G54D10*
G01X170000Y-3649990D03*
G01X170000Y-3789995D03*
G54D11*
G01X399996Y-3529993D03*
G01X540001Y-3529993D03*
G54D12*
G01X1129998Y-869998D03*
G01X735288Y-107481D03*
G01X2405413Y-1458203D03*
G01X1219938Y-871296D03*
G54D13*
G01X704992Y-2447509D03*
G01X789981Y-2447509D03*
G01X874994Y-2447509D03*
G01X959983Y-2447509D03*
G01X1044997Y-2447509D03*
G01X1129985Y-2447509D03*
G01X1214999Y-2447509D03*
G01X1299987Y-2447509D03*
G01X1384976Y-2447509D03*
G01X1469989Y-2447509D03*
G01X1554978Y-2447509D03*
G01X1639992Y-2447509D03*
G01X1724980Y-2447509D03*
G01X1809994Y-2447509D03*
G01X1894982Y-2447509D03*
G54D14*
G01X2002500Y-2344995D03*
G01X2002500Y-2260007D03*
G01X2002500Y-2174993D03*
G01X2002500Y-2090004D03*
G01X2002500Y-2004991D03*
G01X2002500Y-1920002D03*
G01X2002500Y-1834988D03*
G01X2002500Y-1750000D03*
G01X2002500Y-1665012D03*
G01X2002500Y-1579998D03*
G01X2002500Y-1495009D03*
G01X2002500Y-1409996D03*
G01X2002500Y-1325007D03*
G01X2002500Y-1239993D03*
G01X2002500Y-1155005D03*
G54D13*
G01X1894982Y-1052491D03*
G01X1809994Y-1052491D03*
G01X1724980Y-1052491D03*
G01X1639992Y-1052491D03*
G01X1554978Y-1052491D03*
G01X1469989Y-1052491D03*
G01X1384976Y-1052491D03*
G01X1299987Y-1052491D03*
G01X1214999Y-1052491D03*
G01X1129985Y-1052491D03*
G01X1044997Y-1052491D03*
G01X959983Y-1052491D03*
G01X874994Y-1052491D03*
G01X789981Y-1052491D03*
G01X704992Y-1052491D03*
G54D14*
G01X597499Y-1155005D03*
G01X597499Y-1239993D03*
G01X597499Y-1325007D03*
G01X597499Y-1409996D03*
G01X597499Y-1495009D03*
G01X597499Y-1579998D03*
G01X597499Y-1665012D03*
G01X597499Y-1750000D03*
G01X597499Y-1834988D03*
G01X597499Y-1920002D03*
G01X597499Y-2004991D03*
G01X597499Y-2090004D03*
G01X597499Y-2174993D03*
G01X597499Y-2260007D03*
G01X597499Y-2344995D03*
G54D15*
G01X599989Y-2449999D03*
G01X599989Y-1050001D03*
G01X1999986Y-2449999D03*
G01X1999986Y-1050001D03*
G54D16*
G01X1134989Y-1914998D03*
G01X1134989Y-1750000D03*
G01X1134989Y-1585002D03*
G01X1299987Y-1914998D03*
G01X1299987Y-1750000D03*
G01X1299987Y-1585002D03*
G01X1464986Y-1914998D03*
G01X1464986Y-1750000D03*
G01X1464986Y-1585002D03*
G54D18*
G01X621942Y-3650003D03*
G01X621942Y-3729987D03*
G01X621942Y-3809997D03*
G01X621942Y-3889982D03*
G01X338046Y-3889982D03*
G01X338046Y-3809997D03*
G01X338046Y-3729987D03*
G01X338046Y-3650003D03*
G54D19*
G01X1668727Y-3831516D03*
G54D20*
G01X1539999Y-3754986D03*
G01X1539999Y-3804999D03*
G01X1539999Y-3855011D03*
G01X1539999Y-3904999D03*
G01X1799994Y-3754986D03*
G01X1799994Y-3804999D03*
G01X1799994Y-3855011D03*
G01X1799994Y-3904999D03*
G54D21*
G01X2045716Y-641559D03*
G01X1855724Y-641559D03*
G01X1855724Y-391559D03*
G01X1950720Y-391559D03*
G01X2045716Y-391559D03*
G54D10*
G01X2400000Y-1679998D03*
G01X2400000Y-1820002D03*
G54D11*
G01X790001Y-2619995D03*
G01X649996Y-2619995D03*
G01X929996Y-2619995D03*
G01X1070000Y-2619995D03*
G54D22*
G01X2185007Y-2549995D03*
G01X2185007Y-2030006D03*
G01X2354984Y-2549995D03*
G01X2354984Y-2030006D03*
G54D23*
G01X648619Y-372008D03*
G01X128631Y-372008D03*
G01X648619Y-202032D03*
G01X128631Y-202032D03*
G54D24*
G01X2167503Y-250000D03*
G54D25*
G01X2042502Y-250000D03*
G54D26*
G01X1939998Y-250000D03*
G54D24*
G01X1832497Y-250000D03*
G54D11*
G01X2189993Y-2979994D03*
G01X2329998Y-2979994D03*
G54D27*
G01X279999Y-3370494D03*
G01X279999Y-3243494D03*
G01X279999Y-3116494D03*
G01X279999Y-2989494D03*
G04 Pad End*

M02*

