G04 Layer: BottomLayer*
G04 EasyEDA Pro v2.2.45.4, 2026-04-26 19:59:05*
G04 Gerber Generator version 0.3*
G04 Scale: 100 percent, Rotated: No, Reflected: No*
G04 Dimensions in millimeters*
G04 Leading zeros omitted, absolute positions, 4 integers and 5 decimals*
G04 Generated by one-click*
%FSLAX45Y45*%
%MOMM*%
%ADD10C,0.2032*%
%ADD11C,0.4*%
%ADD12C,0.2*%
%ADD13C,0.6*%
%ADD14R,1.7X1.7*%
%ADD15C,1.7*%
%ADD16R,1.524X1.524*%
%ADD17C,1.5219*%
%ADD18C,1.524*%
%ADD19O,1.0X2.0*%
%ADD20O,1.0X1.8*%
%ADD21C,2.0*%
%ADD22C,0.9*%
G75*


G04 Copper Start*
G36*
G01X30414Y-2908636D02*
G01X452353Y-2908636D01*
G01X443802Y-2926978D01*
G01X438843Y-2946598D01*
G01X437651Y-2966800D01*
G01X440270Y-2986867D01*
G01X446607Y-3006087D01*
G01X456436Y-3023777D01*
G01X469409Y-3039309D01*
G01X485065Y-3052133D01*
G01X502848Y-3061792D01*
G01X522127Y-3067945D01*
G01X542218Y-3070372D01*
G01X562408Y-3068987D01*
G01X581980Y-3063840D01*
G01X600239Y-3055114D01*
G01X616537Y-3043118D01*
G01X630296Y-3028277D01*
G01X641027Y-3011119D01*
G01X648350Y-2992253D01*
G01X652003Y-2972348D01*
G01X651859Y-2952112D01*
G01X647921Y-2932261D01*
G01X640330Y-2913502D01*
G01X682923Y-2870909D01*
G01X743698Y-2870909D01*
G01X728492Y-2881959D01*
G01X715446Y-2895490D01*
G01X704957Y-2911088D01*
G01X697349Y-2928276D01*
G01X692853Y-2946528D01*
G01X691608Y-2965283D01*
G01X693652Y-2983968D01*
G01X698921Y-3002011D01*
G01X707255Y-3018859D01*
G01X718398Y-3033997D01*
G01X732009Y-3046960D01*
G01X747672Y-3057352D01*
G01X764907Y-3064854D01*
G01X783185Y-3069237D01*
G01X786325Y-3078835D01*
G01X792266Y-3087000D01*
G01X816239Y-3110973D01*
G01X797120Y-3109596D01*
G01X778061Y-3111640D01*
G01X759669Y-3117039D01*
G01X742529Y-3125621D01*
G01X727187Y-3137113D01*
G01X714133Y-3151148D01*
G01X703780Y-3167280D01*
G01X696461Y-3184996D01*
G01X692406Y-3203730D01*
G01X691746Y-3222887D01*
G01X694501Y-3241856D01*
G01X700584Y-3260034D01*
G01X709801Y-3276841D01*
G01X721858Y-3291742D01*
G01X736372Y-3304262D01*
G01X752880Y-3314004D01*
G01X770857Y-3320656D01*
G01X789730Y-3324007D01*
G01X808899Y-3323950D01*
G01X827751Y-3320488D01*
G01X845689Y-3313729D01*
G01X862139Y-3303890D01*
G01X876578Y-3291283D01*
G01X888547Y-3276311D01*
G01X888547Y-3395697D01*
G01X845733Y-3438512D01*
G01X841531Y-3440417D01*
G01X838605Y-3443983D01*
G01X837557Y-3448476D01*
G01X837557Y-3719246D01*
G01X832100Y-3728722D01*
G01X828727Y-3739124D01*
G01X827586Y-3750000D01*
G01X828727Y-3760876D01*
G01X832100Y-3771278D01*
G01X837557Y-3780754D01*
G01X837557Y-3876565D01*
G01X825711Y-3881034D01*
G01X815282Y-3888214D01*
G01X806879Y-3897685D01*
G01X800992Y-3908895D01*
G01X797965Y-3921189D01*
G01X797975Y-3933850D01*
G01X793509Y-3938316D01*
G01X151926Y-3938316D01*
G01X30414Y-3816804D01*
G01X30414Y-3131994D01*
G01X409584Y-3131994D01*
G01X409584Y-3301994D01*
G01X411302Y-3315042D01*
G01X416338Y-3327201D01*
G01X424350Y-3337642D01*
G01X434791Y-3345653D01*
G01X446950Y-3350690D01*
G01X459998Y-3352408D01*
G01X629997Y-3352408D01*
G01X629997Y-3352408D01*
G01X643046Y-3350690D01*
G01X655204Y-3345653D01*
G01X665645Y-3337642D01*
G01X673657Y-3327201D01*
G01X678694Y-3315042D01*
G01X680411Y-3301994D01*
G01X680411Y-3131994D01*
G01X678694Y-3118946D01*
G01X673657Y-3106787D01*
G01X665645Y-3096346D01*
G01X655204Y-3088334D01*
G01X643046Y-3083298D01*
G01X629997Y-3081580D01*
G01X459998Y-3081580D01*
G01X446950Y-3083298D01*
G01X434791Y-3088334D01*
G01X424350Y-3096346D01*
G01X416338Y-3106787D01*
G01X411302Y-3118946D01*
G01X409584Y-3131994D01*
G01X30414Y-3131994D01*
G01X30414Y-2908636D01*
G37*
G36*
G01X554902Y-691292D02*
G01X446060Y-582450D01*
G01X436814Y-568270D01*
G01X425700Y-555500D01*
G01X412930Y-544386D01*
G01X398750Y-535140D01*
G01X349899Y-486289D01*
G01X364611Y-493355D01*
G01X380527Y-496972D01*
G01X396848Y-496958D01*
G01X412757Y-493314D01*
G01X427458Y-486222D01*
G01X440212Y-476038D01*
G01X450382Y-463272D01*
G01X457457Y-448564D01*
G01X461083Y-432650D01*
G01X461078Y-416329D01*
G01X457443Y-400417D01*
G01X450359Y-385713D01*
G01X440183Y-372953D01*
G01X427422Y-362776D01*
G01X412718Y-355693D01*
G01X396807Y-352057D01*
G01X380485Y-352053D01*
G01X364572Y-355679D01*
G01X349863Y-362754D01*
G01X337097Y-372923D01*
G01X326913Y-385678D01*
G01X319821Y-400378D01*
G01X316177Y-416287D01*
G01X316163Y-432609D01*
G01X319780Y-448524D01*
G01X326846Y-463237D01*
G01X298480Y-434870D01*
G01X295183Y-432667D01*
G01X291295Y-431894D01*
G01X155542Y-431894D01*
G01X32621Y-308973D01*
G01X32621Y-149530D01*
G01X315712Y-149530D01*
G01X317540Y-165755D01*
G01X322933Y-181166D01*
G01X331619Y-194990D01*
G01X343164Y-206536D01*
G01X356989Y-215222D01*
G01X372400Y-220615D01*
G01X388625Y-222443D01*
G01X404850Y-220615D01*
G01X420261Y-215222D01*
G01X434086Y-206536D01*
G01X445631Y-194990D01*
G01X454318Y-181166D01*
G01X455685Y-177259D01*
G01X719803Y-177259D01*
G01X719803Y-257259D01*
G01X721732Y-276849D01*
G01X727447Y-295686D01*
G01X736726Y-313046D01*
G01X749214Y-328262D01*
G01X764430Y-340750D01*
G01X781790Y-350029D01*
G01X800627Y-355743D01*
G01X820217Y-357673D01*
G01X839807Y-355743D01*
G01X858644Y-350029D01*
G01X876004Y-340750D01*
G01X891220Y-328262D01*
G01X903708Y-313046D01*
G01X912987Y-295686D01*
G01X918701Y-276849D01*
G01X920631Y-257259D01*
G01X920631Y-257259D01*
G01X920631Y-177259D01*
G01X918701Y-157669D01*
G01X912987Y-138832D01*
G01X903708Y-121472D01*
G01X891220Y-106256D01*
G01X876004Y-93768D01*
G01X858644Y-84489D01*
G01X839807Y-78775D01*
G01X820217Y-76845D01*
G01X800627Y-78775D01*
G01X781790Y-84489D01*
G01X764430Y-93768D01*
G01X749214Y-106256D01*
G01X736726Y-121472D01*
G01X727447Y-138832D01*
G01X721732Y-157669D01*
G01X719803Y-177259D01*
G01X455685Y-177259D01*
G01X459710Y-165755D01*
G01X461538Y-149530D01*
G01X459710Y-133305D01*
G01X454318Y-117894D01*
G01X445631Y-104069D01*
G01X434086Y-92524D01*
G01X420261Y-83837D01*
G01X404850Y-78445D01*
G01X388625Y-76617D01*
G01X372400Y-78445D01*
G01X356989Y-83837D01*
G01X343164Y-92524D01*
G01X331619Y-104069D01*
G01X322933Y-117894D01*
G01X317540Y-133305D01*
G01X315712Y-149530D01*
G01X315712Y-149530D01*
G01X32621Y-149530D01*
G01X32621Y-79953D01*
G01X82160Y-30414D01*
G01X1632824Y-30414D01*
G01X1672162Y-77572D01*
G01X1654385Y-81381D01*
G01X1637587Y-88332D01*
G01X1622317Y-98198D01*
G01X1609077Y-110656D01*
G01X1598299Y-125297D01*
G01X1590338Y-141642D01*
G01X1585455Y-159154D01*
G01X1583809Y-177259D01*
G01X1583809Y-257259D01*
G01X1585504Y-275630D01*
G01X1590532Y-293381D01*
G01X1598722Y-309913D01*
G01X1301346Y-309913D01*
G01X1287921Y-311552D01*
G01X1275284Y-316372D01*
G01X1264177Y-324090D01*
G01X1061161Y-505318D01*
G01X1047876Y-509071D01*
G01X1035666Y-515513D01*
G01X1025068Y-524361D01*
G01X1016549Y-535225D01*
G01X1010484Y-547627D01*
G01X1000633Y-537820D01*
G01X988802Y-530524D01*
G01X975616Y-526126D01*
G01X961773Y-524857D01*
G01X948008Y-526786D01*
G01X935047Y-531811D01*
G01X923578Y-539664D01*
G01X914208Y-549931D01*
G01X905382Y-532071D01*
G01X893205Y-516306D01*
G01X878156Y-503254D01*
G01X860825Y-493431D01*
G01X841897Y-487221D01*
G01X822116Y-484871D01*
G01X802259Y-486472D01*
G01X783110Y-491961D01*
G01X765421Y-501122D01*
G01X749888Y-513595D01*
G01X737123Y-528889D01*
G01X727629Y-546402D01*
G01X721779Y-565444D01*
G01X719803Y-585267D01*
G01X719803Y-685267D01*
G01X721732Y-704856D01*
G01X727447Y-723693D01*
G01X736726Y-741054D01*
G01X749214Y-756270D01*
G01X764430Y-768758D01*
G01X781790Y-778037D01*
G01X800627Y-783751D01*
G01X820217Y-785680D01*
G01X839807Y-783751D01*
G01X858644Y-778037D01*
G01X876004Y-768758D01*
G01X891220Y-756270D01*
G01X903708Y-741054D01*
G01X912987Y-723693D01*
G01X918701Y-704856D01*
G01X920631Y-685267D01*
G01X920631Y-628104D01*
G01X932266Y-637136D01*
G01X945741Y-643085D01*
G01X960256Y-645595D01*
G01X974946Y-644519D01*
G01X988940Y-639919D01*
G01X1001404Y-632070D01*
G01X1011598Y-621438D01*
G01X1018917Y-608655D01*
G01X1030004Y-620592D01*
G01X1043684Y-629441D01*
G01X1059118Y-634658D01*
G01X1075361Y-635923D01*
G01X1091417Y-633160D01*
G01X1106302Y-626538D01*
G01X1119105Y-616462D01*
G01X1129040Y-603550D01*
G01X1135499Y-588593D01*
G01X1322634Y-421541D01*
G01X1493103Y-421541D01*
G01X1410803Y-502142D01*
G01X1397038Y-506814D01*
G01X1384633Y-514393D01*
G01X1374195Y-524510D01*
G01X1366233Y-536673D01*
G01X1361134Y-550286D01*
G01X1359149Y-564686D01*
G01X1360373Y-579172D01*
G01X1364747Y-593035D01*
G01X1372058Y-605599D01*
G01X1381949Y-616252D01*
G01X1393937Y-624474D01*
G01X1407438Y-629864D01*
G01X1421792Y-632159D01*
G01X1436300Y-631246D01*
G01X1450254Y-627171D01*
G01X1462973Y-620132D01*
G01X1473836Y-610472D01*
G01X1482314Y-598664D01*
G01X1487098Y-612097D01*
G01X1494898Y-624035D01*
G01X1505278Y-633813D01*
G01X1517661Y-640885D01*
G01X1531356Y-644857D01*
G01X1545602Y-645509D01*
G01X1559603Y-642804D01*
G01X1572580Y-636892D01*
G01X1583809Y-628104D01*
G01X1583809Y-685241D01*
G01X1585775Y-705010D01*
G01X1591593Y-724004D01*
G01X1601037Y-741482D01*
G01X1613737Y-756758D01*
G01X1629196Y-769235D01*
G01X1646809Y-778424D01*
G01X1665886Y-783966D01*
G01X1685680Y-785644D01*
G01X1705418Y-783393D01*
G01X1724326Y-777299D01*
G01X1741665Y-767602D01*
G01X1756755Y-754682D01*
G01X1769007Y-739044D01*
G01X1777939Y-721300D01*
G01X1792678Y-736786D01*
G01X1799490Y-742240D01*
G01X1807511Y-745679D01*
G01X1816158Y-746854D01*
G01X2175421Y-746854D01*
G01X2166542Y-757511D01*
G01X2160033Y-769759D01*
G01X2156167Y-783080D01*
G01X2155110Y-796910D01*
G01X2156906Y-810664D01*
G01X2161479Y-823760D01*
G01X2168635Y-835642D01*
G01X2178071Y-845808D01*
G01X2189389Y-853828D01*
G01X2202108Y-859361D01*
G01X2215690Y-862175D01*
G01X2229561Y-862149D01*
G01X2247583Y-880171D01*
G01X2256367Y-886911D01*
G01X2266596Y-891148D01*
G01X2277574Y-892593D01*
G01X2317499Y-892593D01*
G01X2326009Y-899713D01*
G01X2335826Y-904882D01*
G01X2346511Y-907869D01*
G01X2357586Y-908540D01*
G01X2357586Y-1476719D01*
G01X2348062Y-1486141D01*
G01X2340589Y-1497259D01*
G01X2335463Y-1509636D01*
G01X2332885Y-1522783D01*
G01X2332957Y-1536179D01*
G01X1811550Y-2057586D01*
G01X1252399Y-2057586D01*
G01X1240550Y-2046145D01*
G01X1226280Y-2037919D01*
G01X1210441Y-2033400D01*
G01X1193979Y-2032856D01*
G01X1177876Y-2036320D01*
G01X1163094Y-2043586D01*
G01X1150515Y-2054220D01*
G01X1140890Y-2067586D01*
G01X963426Y-2067586D01*
G01X596294Y-1700454D01*
G01X596294Y-877639D01*
G01X605761Y-867965D01*
G01X612435Y-856190D01*
G01X615871Y-843098D01*
G01X615839Y-829562D01*
G01X612343Y-816486D01*
G01X605615Y-804741D01*
G01X596103Y-795111D01*
G01X584443Y-788238D01*
G01X571411Y-784580D01*
G01X557877Y-784381D01*
G01X557877Y-698476D01*
G01X557104Y-694588D01*
G01X554902Y-691292D01*
G37*
G36*
G01X594490Y-2867661D02*
G01X576692Y-2860362D01*
G01X557877Y-2856355D01*
G01X557877Y-1753718D01*
G01X927080Y-2122920D01*
G01X933793Y-2128071D01*
G01X941611Y-2131310D01*
G01X950000Y-2132414D01*
G01X1140890Y-2132414D01*
G01X1147743Y-2142589D01*
G01X1124997Y-2142589D01*
G01X1116608Y-2143694D01*
G01X1108790Y-2146932D01*
G01X1102077Y-2152083D01*
G01X1006205Y-2247955D01*
G01X991840Y-2248225D01*
G01X978088Y-2252386D01*
G01X965983Y-2260125D01*
G01X956433Y-2270860D01*
G01X950158Y-2283784D01*
G01X947627Y-2297927D01*
G01X949032Y-2312226D01*
G01X954267Y-2325606D01*
G01X962938Y-2337062D01*
G01X974394Y-2345733D01*
G01X987774Y-2350968D01*
G01X1002073Y-2352373D01*
G01X1016216Y-2349842D01*
G01X1029140Y-2343567D01*
G01X1039875Y-2334017D01*
G01X1047614Y-2321912D01*
G01X1051775Y-2308160D01*
G01X1052045Y-2293795D01*
G01X1138423Y-2207417D01*
G01X1558945Y-2207417D01*
G01X1551882Y-2219219D01*
G01X1548132Y-2232452D01*
G01X1547955Y-2246205D01*
G01X1477080Y-2317080D01*
G01X1471929Y-2323793D01*
G01X1468691Y-2331611D01*
G01X1467586Y-2340000D01*
G01X1467586Y-2696565D01*
G01X1308560Y-2855591D01*
G01X1289092Y-2857083D01*
G01X1270216Y-2862074D01*
G01X1252555Y-2870399D01*
G01X1236693Y-2881784D01*
G01X1223154Y-2895852D01*
G01X1212386Y-2912138D01*
G01X1204743Y-2930105D01*
G01X1200479Y-2949158D01*
G01X1199734Y-2968669D01*
G01X1202533Y-2987992D01*
G01X1208784Y-3006489D01*
G01X1218280Y-3023549D01*
G01X1230707Y-3038608D01*
G01X1245655Y-3051169D01*
G01X1262630Y-3060816D01*
G01X1281071Y-3067232D01*
G01X1300368Y-3070203D01*
G01X1319884Y-3069632D01*
G01X1338975Y-3065537D01*
G01X1357009Y-3058055D01*
G01X1373390Y-3047431D01*
G01X1387578Y-3034018D01*
G01X1399104Y-3018258D01*
G01X1407586Y-3000672D01*
G01X1407586Y-3070565D01*
G01X1356490Y-3121661D01*
G01X1337132Y-3113894D01*
G01X1316638Y-3110013D01*
G01X1295780Y-3110167D01*
G01X1275346Y-3114349D01*
G01X1256105Y-3122402D01*
G01X1238783Y-3134021D01*
G01X1224033Y-3148769D01*
G01X1212412Y-3166090D01*
G01X1212412Y-3152791D01*
G01X1211307Y-3144402D01*
G01X1208069Y-3136584D01*
G01X1202918Y-3129871D01*
G01X1140121Y-3067074D01*
G01X1133407Y-3061923D01*
G01X1125590Y-3058684D01*
G01X1117200Y-3057580D01*
G01X1103902Y-3057580D01*
G01X1120375Y-3046648D01*
G01X1134566Y-3032881D01*
G01X1145994Y-3016747D01*
G01X1154271Y-2998792D01*
G01X1159116Y-2979624D01*
G01X1160367Y-2959893D01*
G01X1157979Y-2940266D01*
G01X1152035Y-2921410D01*
G01X1142736Y-2903962D01*
G01X1130396Y-2888515D01*
G01X1115435Y-2875590D01*
G01X1098357Y-2865627D01*
G01X1079743Y-2858963D01*
G01X1060223Y-2855823D01*
G01X1040458Y-2856314D01*
G01X1021118Y-2860420D01*
G01X1002858Y-2868000D01*
G01X986297Y-2878799D01*
G01X971995Y-2892451D01*
G01X960438Y-2908492D01*
G01X958982Y-2900934D01*
G01X955784Y-2893932D01*
G01X951026Y-2887882D01*
G01X878719Y-2815575D01*
G01X872006Y-2810423D01*
G01X864189Y-2807185D01*
G01X855799Y-2806081D01*
G01X669497Y-2806081D01*
G01X661107Y-2807185D01*
G01X653290Y-2810423D01*
G01X646577Y-2815575D01*
G01X594490Y-2867661D01*
G37*
G36*
G01X2100582Y-3329247D02*
G01X1283709Y-3329247D01*
G01X1278006Y-3320421D01*
G01X1298444Y-3324066D01*
G01X1319201Y-3323712D01*
G01X1339503Y-3319371D01*
G01X1358590Y-3311206D01*
G01X1375751Y-3299521D01*
G01X1390342Y-3284754D01*
G01X1401821Y-3267455D01*
G01X1409757Y-3248271D01*
G01X1413854Y-3227919D01*
G01X1413960Y-3207158D01*
G01X1410070Y-3186765D01*
G01X1402330Y-3167502D01*
G01X1462920Y-3106911D01*
G01X1468071Y-3100198D01*
G01X1471310Y-3092381D01*
G01X1472414Y-3083991D01*
G01X1472414Y-3023745D01*
G01X1485167Y-3039069D01*
G01X1500533Y-3051773D01*
G01X1517982Y-3061418D01*
G01X1536913Y-3067673D01*
G01X1556673Y-3070321D01*
G01X1576583Y-3069271D01*
G01X1595955Y-3064560D01*
G01X1614124Y-3056350D01*
G01X1630462Y-3044923D01*
G01X1644407Y-3030675D01*
G01X1655478Y-3014094D01*
G01X1663294Y-2995753D01*
G01X1667586Y-2976283D01*
G01X1667586Y-3064565D01*
G01X1610490Y-3121661D01*
G01X1591697Y-3114061D01*
G01X1571812Y-3110126D01*
G01X1551541Y-3109997D01*
G01X1531607Y-3113679D01*
G01X1512719Y-3121041D01*
G01X1495551Y-3131820D01*
G01X1480714Y-3145633D01*
G01X1468737Y-3161988D01*
G01X1460045Y-3180301D01*
G01X1454949Y-3199921D01*
G01X1453630Y-3220150D01*
G01X1456135Y-3240266D01*
G01X1462375Y-3259553D01*
G01X1472127Y-3277324D01*
G01X1485045Y-3292947D01*
G01X1500667Y-3305864D01*
G01X1518439Y-3315617D01*
G01X1537726Y-3321856D01*
G01X1557842Y-3324361D01*
G01X1578070Y-3323042D01*
G01X1597690Y-3317946D01*
G01X1616004Y-3309255D01*
G01X1632358Y-3297277D01*
G01X1646171Y-3282440D01*
G01X1656950Y-3265272D01*
G01X1664312Y-3246385D01*
G01X1667994Y-3226451D01*
G01X1667866Y-3206180D01*
G01X1663931Y-3186294D01*
G01X1656330Y-3167502D01*
G01X1722920Y-3100911D01*
G01X1728071Y-3094198D01*
G01X1731310Y-3086381D01*
G01X1732414Y-3077991D01*
G01X1732414Y-3031679D01*
G01X1745851Y-3045192D01*
G01X1761464Y-3056117D01*
G01X1778762Y-3064111D01*
G01X1797200Y-3068923D01*
G01X1816199Y-3070401D01*
G01X1835160Y-3068498D01*
G01X1853486Y-3063275D01*
G01X1870601Y-3054896D01*
G01X1885966Y-3043624D01*
G01X1899097Y-3029815D01*
G01X1909581Y-3013902D01*
G01X1909581Y-3076570D01*
G01X1864490Y-3121661D01*
G01X1845697Y-3114061D01*
G01X1825812Y-3110126D01*
G01X1805541Y-3109997D01*
G01X1785607Y-3113679D01*
G01X1766719Y-3121041D01*
G01X1749551Y-3131820D01*
G01X1734714Y-3145633D01*
G01X1722737Y-3161988D01*
G01X1714045Y-3180301D01*
G01X1708949Y-3199921D01*
G01X1707630Y-3220150D01*
G01X1710135Y-3240266D01*
G01X1716375Y-3259553D01*
G01X1726127Y-3277324D01*
G01X1739045Y-3292947D01*
G01X1754667Y-3305864D01*
G01X1772439Y-3315617D01*
G01X1791726Y-3321856D01*
G01X1811842Y-3324361D01*
G01X1832070Y-3323042D01*
G01X1851690Y-3317946D01*
G01X1870004Y-3309255D01*
G01X1886358Y-3297277D01*
G01X1900171Y-3282440D01*
G01X1910950Y-3265272D01*
G01X1918312Y-3246385D01*
G01X1921994Y-3226451D01*
G01X1921866Y-3206180D01*
G01X1917931Y-3186294D01*
G01X1910330Y-3167502D01*
G01X1964915Y-3112916D01*
G01X1970066Y-3106203D01*
G01X1973305Y-3098386D01*
G01X1974409Y-3089996D01*
G01X1974409Y-2888335D01*
G01X1973305Y-2879945D01*
G01X1970066Y-2872128D01*
G01X1964915Y-2865414D01*
G01X1942414Y-2842913D01*
G01X1942414Y-2281189D01*
G01X1951992Y-2271368D01*
G01X1958693Y-2259397D01*
G01X1962058Y-2246098D01*
G01X1961857Y-2232381D01*
G01X1958104Y-2219186D01*
G01X1951056Y-2207417D01*
G01X1989061Y-2207417D01*
G01X2010074Y-2228429D01*
G01X2010074Y-2345003D01*
G01X2011178Y-2353392D01*
G01X2014416Y-2361210D01*
G01X2019568Y-2367923D01*
G01X2078860Y-2427216D01*
G01X2085573Y-2432367D01*
G01X2093391Y-2435605D01*
G01X2101780Y-2436709D01*
G01X2139906Y-2436709D01*
G01X2149962Y-2446461D01*
G01X2162241Y-2453201D01*
G01X2175868Y-2456448D01*
G01X2189867Y-2455970D01*
G01X2203240Y-2451802D01*
G01X2215031Y-2444240D01*
G01X2224399Y-2433826D01*
G01X2230674Y-2421302D01*
G01X2233407Y-2407564D01*
G01X2232405Y-2393592D01*
G01X2227738Y-2380385D01*
G01X2219739Y-2368886D01*
G01X2208981Y-2359915D01*
G01X2196231Y-2354114D01*
G01X2182400Y-2351898D01*
G01X2168476Y-2353423D01*
G01X2181505Y-2343994D01*
G01X2192151Y-2331938D01*
G01X2199894Y-2317841D01*
G01X2204358Y-2302390D01*
G01X2205326Y-2286335D01*
G01X2202751Y-2270459D01*
G01X2196758Y-2255534D01*
G01X2187639Y-2242286D01*
G01X2175836Y-2231360D01*
G01X2161926Y-2223286D01*
G01X2146584Y-2218459D01*
G01X2130557Y-2217113D01*
G01X2114625Y-2219314D01*
G01X2099562Y-2224953D01*
G01X2086103Y-2233758D01*
G01X2074902Y-2245300D01*
G01X2074902Y-2215003D01*
G01X2073797Y-2206614D01*
G01X2070559Y-2198796D01*
G01X2065408Y-2192083D01*
G01X2025408Y-2152083D01*
G01X2018695Y-2146932D01*
G01X2010877Y-2143694D01*
G01X2002488Y-2142589D01*
G01X1252257Y-2142589D01*
G01X1252417Y-2142392D01*
G01X1829118Y-2142414D01*
G01X1840096Y-2140969D01*
G01X1850325Y-2136732D01*
G01X1859109Y-2129991D01*
G01X2392939Y-1596161D01*
G01X2407327Y-1596133D01*
G01X2421382Y-1593052D01*
G01X2434462Y-1587058D01*
G01X2445973Y-1578425D01*
G01X2455389Y-1567546D01*
G01X2462282Y-1554917D01*
G01X2466338Y-1541112D01*
G01X2467373Y-1526761D01*
G01X2465338Y-1512517D01*
G01X2460327Y-1499030D01*
G01X2452568Y-1486913D01*
G01X2442414Y-1476719D01*
G01X2442414Y-877994D01*
G01X2440969Y-867017D01*
G01X2436732Y-856787D01*
G01X2429991Y-848003D01*
G01X2402176Y-820188D01*
G01X2394374Y-814033D01*
G01X2385354Y-809862D01*
G01X2375610Y-807904D01*
G01X2362286Y-804248D01*
G01X2348469Y-804201D01*
G01X2335120Y-807765D01*
G01X2295142Y-807765D01*
G01X2289543Y-802166D01*
G01X2289423Y-786987D01*
G01X2285910Y-772219D01*
G01X2279181Y-758611D01*
G01X2269579Y-746854D01*
G01X2335560Y-746854D01*
G01X2343949Y-745750D01*
G01X2351767Y-742511D01*
G01X2358480Y-737360D01*
G01X2458780Y-637060D01*
G01X2463931Y-630347D01*
G01X2467169Y-622529D01*
G01X2468274Y-614140D01*
G01X2468274Y-222338D01*
G01X2471363Y-222338D01*
G01X2471363Y-2254843D01*
G01X2462157Y-2241757D01*
G01X2450319Y-2230995D01*
G01X2436418Y-2223073D01*
G01X2421125Y-2218374D01*
G01X2405174Y-2217124D01*
G01X2389335Y-2219382D01*
G01X2374370Y-2225041D01*
G01X2361000Y-2233828D01*
G01X2349867Y-2245319D01*
G01X2341509Y-2258961D01*
G01X2336328Y-2274098D01*
G01X2334572Y-2290000D01*
G01X2336328Y-2305903D01*
G01X2341509Y-2321040D01*
G01X2349867Y-2334682D01*
G01X2361000Y-2346173D01*
G01X2374370Y-2354960D01*
G01X2389335Y-2360619D01*
G01X2405174Y-2362877D01*
G01X2421125Y-2361627D01*
G01X2436418Y-2356928D01*
G01X2450319Y-2349006D01*
G01X2462157Y-2338244D01*
G01X2471363Y-2325158D01*
G01X2471363Y-3264777D01*
G01X2406893Y-3329247D01*
G01X2165409Y-3329247D01*
G01X2165409Y-2892028D01*
G01X2164327Y-2883723D01*
G01X2161154Y-2875972D01*
G01X2156100Y-2869293D01*
G01X2119585Y-2832184D01*
G01X2119430Y-2817817D01*
G01X2115381Y-2804032D01*
G01X2107740Y-2791864D01*
G01X2097082Y-2782228D01*
G01X2084209Y-2775849D01*
G01X2070087Y-2773204D01*
G01X2055777Y-2774493D01*
G01X2042355Y-2779620D01*
G01X2030830Y-2788198D01*
G01X2022066Y-2799584D01*
G01X2016724Y-2812921D01*
G01X2015203Y-2827208D01*
G01X2017620Y-2841371D01*
G01X2023791Y-2854346D01*
G01X2033253Y-2865158D01*
G01X2045296Y-2872994D01*
G01X2059013Y-2877266D01*
G01X2073376Y-2877652D01*
G01X2100582Y-2905301D01*
G01X2100582Y-3329247D01*
G37*
G36*
G01X2151058Y-421541D02*
G01X2164170Y-428098D01*
G01X2178407Y-431590D01*
G01X2193064Y-431844D01*
G01X2207414Y-428848D01*
G01X2220745Y-422749D01*
G01X2235089Y-428882D01*
G01X2250473Y-431466D01*
G01X2266034Y-430357D01*
G01X2280897Y-425617D01*
G01X2294226Y-417512D01*
G01X2294226Y-568411D01*
G01X2285450Y-577187D01*
G01X2278984Y-587780D01*
G01X2275189Y-599597D01*
G01X2274280Y-611975D01*
G01X2276306Y-624220D01*
G01X2281155Y-635645D01*
G01X2288554Y-645609D01*
G01X2298089Y-653555D01*
G01X2309224Y-659036D01*
G01X2321336Y-661745D01*
G01X2333745Y-661530D01*
G01X2345756Y-658404D01*
G01X2322134Y-682026D01*
G01X1830056Y-682026D01*
G01X1806194Y-656952D01*
G01X1806194Y-515749D01*
G01X1816188Y-505363D01*
G01X1822974Y-492647D01*
G01X1826041Y-478564D01*
G01X1825155Y-464177D01*
G01X1820385Y-450576D01*
G01X1812090Y-438789D01*
G01X1800898Y-429706D01*
G01X1787656Y-424016D01*
G01X1773364Y-422148D01*
G01X1759103Y-424243D01*
G01X1745953Y-430143D01*
G01X1734907Y-439402D01*
G01X1726800Y-451320D01*
G01X1722246Y-464995D01*
G01X1721589Y-479393D01*
G01X1724879Y-493426D01*
G01X1707696Y-487610D01*
G01X1689746Y-484980D01*
G01X1671616Y-485622D01*
G01X1653897Y-489516D01*
G01X1637169Y-496535D01*
G01X1621976Y-506449D01*
G01X1608815Y-518935D01*
G01X1598115Y-533586D01*
G01X1590226Y-549922D01*
G01X1581648Y-540360D01*
G01X1571243Y-532828D01*
G01X1559480Y-527665D01*
G01X1546892Y-525107D01*
G01X1652640Y-421541D01*
G01X2151058Y-421541D01*
G37*
G36*
G01X1784637Y-257259D02*
G01X1784637Y-212407D01*
G01X1789875Y-218686D01*
G01X1793370Y-221380D01*
G01X1797677Y-222338D01*
G01X2220765Y-222338D01*
G01X2230593Y-226363D01*
G01X2241030Y-228325D01*
G01X2251648Y-228143D01*
G01X2294226Y-270721D01*
G01X2294226Y-313942D01*
G01X2280683Y-305740D01*
G01X2265572Y-301010D01*
G01X2249770Y-300025D01*
G01X2234189Y-302843D01*
G01X2219732Y-309301D01*
G01X2206948Y-303646D01*
G01X2193258Y-300820D01*
G01X2179280Y-300948D01*
G01X2165644Y-304025D01*
G01X2152966Y-309913D01*
G01X1769724Y-309913D01*
G01X1777915Y-293381D01*
G01X1782942Y-275630D01*
G01X1784637Y-257259D01*
G37*
G54D10*
G01X30414Y-2908636D02*
G01X452353Y-2908636D01*
G03X542218Y-3070372I92644J-54358D01*
G03X640330Y-2913502I2779J107378D01*
G01X682923Y-2870909D01*
G01X743698Y-2870909D01*
G03X693652Y-2983968I55300J-92085D01*
G03X783185Y-3069237I105346J20974D01*
G03X792266Y-3087000I32001J5157D01*
G01X816239Y-3110973D01*
G03X700584Y-3260034I-17241J-106021D01*
G03X888547Y-3276311I98414J43040D01*
G01X888547Y-3395697D01*
G01X845733Y-3438512D01*
G03X837557Y-3448476I1985J-9964D01*
G01X837557Y-3719246D01*
G03X827586Y-3750000I42443J-30754D01*
G03X837557Y-3780754I52414J0D01*
G01X837557Y-3876565D01*
G03X806879Y-3897685I12443J-50916D01*
G03X797975Y-3933850I43121J-29796D01*
G01X793509Y-3938316D01*
G01X151926Y-3938316D01*
G01X30414Y-3816804D01*
G01X30414Y-2908636D01*
G01X629997Y-3352408D02*
G03X680411Y-3301994I0J50414D01*
G01X680411Y-3131994D01*
G03X629997Y-3081580I-50414J0D01*
G01X459998Y-3081580D01*
G03X409584Y-3131994I0J-50414D01*
G01X409584Y-3301994D01*
G03X459998Y-3352408I50414J0D01*
G01X629997Y-3352408D01*
G01X554902Y-691292D02*
G01X446060Y-582450D01*
G03X398750Y-535140I-106920J-59610D01*
G01X349899Y-486289D01*
G03X440183Y-372953I38726J61779D01*
G03X326846Y-463237I-51557J-51557D01*
G01X298480Y-434870D01*
G03X291295Y-431894I-7184J-7184D01*
G01X155542Y-431894D01*
G01X32621Y-308973D01*
G01X32621Y-79953D01*
G01X82160Y-30414D01*
G01X1632824Y-30414D01*
G01X1672162Y-77572D01*
G03X1583809Y-177259I12061J-99687D01*
G01X1583809Y-257259D01*
G03X1598722Y-309913I100414J0D01*
G01X1301346Y-309913D01*
G03X1264177Y-324090I0J-55814D01*
G01X1061161Y-505318D01*
G03X1010484Y-547627I11152J-64862D01*
G03X914208Y-549931I-47265J-37628D01*
G03X719803Y-585267I-93991J-35336D01*
G01X719803Y-685267D01*
G03X920631Y-685267I100414J0D01*
G01X920631Y-628104D01*
G03X1018917Y-608655I42588J42850D01*
G03X1135499Y-588593I53396J38475D01*
G01X1322634Y-421541D01*
G01X1493103Y-421541D01*
G01X1410803Y-502142D01*
G03X1372058Y-605599I14137J-64278D01*
G03X1482314Y-598664I52882J39179D01*
G03X1583809Y-628104I58907J13410D01*
G01X1583809Y-685241D01*
G03X1777939Y-721300I100414J0D01*
G01X1792678Y-736786D01*
G03X1816158Y-746854I23480J22346D01*
G01X2175421Y-746854D01*
G03X2161479Y-823760I47079J-48252D01*
G03X2229561Y-862149I61021J28654D01*
G01X2247583Y-880171D01*
G03X2277574Y-892593I29991J29991D01*
G01X2317499Y-892593D01*
G03X2357586Y-908540I37701J36413D01*
G01X2357586Y-1476719D01*
G03X2332957Y-1536179I42414J-52399D01*
G01X1811550Y-2057586D01*
G01X1252399Y-2057586D01*
G03X1140890Y-2067586I-52399J-42414D01*
G01X963426Y-2067586D01*
G01X596294Y-1700454D01*
G01X596294Y-877639D01*
G03X612343Y-816486I-32414J41189D01*
G03X557877Y-784381I-48463J-19964D01*
G01X557877Y-698476D01*
G03X554902Y-691292I-10160J0D01*
G01X315712Y-149530D02*
G03X461538Y-149530I72913J0D01*
G03X315712Y-149530I-72913J0D01*
G01X920631Y-257259D02*
G01X920631Y-177259D01*
G03X719803Y-177259I-100414J0D01*
G01X719803Y-257259D01*
G03X920631Y-257259I100414J0D01*
G01X594490Y-2867661D02*
G03X557877Y-2856355I-49492J-95332D01*
G01X557877Y-1753718D01*
G01X927080Y-2122920D01*
G03X950000Y-2132414I22920J22920D01*
G01X1140890Y-2132414D01*
G03X1147743Y-2142589I59110J32414D01*
G01X1124997Y-2142589D01*
G03X1102077Y-2152083I0J-32414D01*
G01X1006205Y-2247955D01*
G03X962938Y-2337062I-6205J-52045D01*
G03X1052045Y-2293795I37062J37062D01*
G01X1138423Y-2207417D01*
G01X1558945Y-2207417D01*
G03X1547955Y-2246205I41056J-32583D01*
G01X1477080Y-2317080D01*
G03X1467586Y-2340000I22920J-22920D01*
G01X1467586Y-2696565D01*
G01X1308560Y-2855591D01*
G03X1218280Y-3023549I-1562J-107402D01*
G03X1407586Y-3000672I88718J60555D01*
G01X1407586Y-3070565D01*
G01X1356490Y-3121661D01*
G03X1212412Y-3166090I-49492J-95332D01*
G01X1212412Y-3152791D01*
G03X1202918Y-3129871I-32414J0D01*
G01X1140121Y-3067074D01*
G03X1117200Y-3057580I-22920J-22920D01*
G01X1103902Y-3057580D01*
G03X1130396Y-2888515I-50904J94586D01*
G03X960438Y-2908492I-77399J-74479D01*
G03X951026Y-2887882I-32332J-2310D01*
G01X878719Y-2815575D01*
G03X855799Y-2806081I-22920J-22920D01*
G01X669497Y-2806081D01*
G03X646577Y-2815575I0J-32414D01*
G01X594490Y-2867661D01*
G01X2100582Y-3329247D02*
G01X1283709Y-3329247D01*
G03X1278006Y-3320421I-29716J-12947D01*
G03X1390342Y-3284754I28992J103427D01*
G03X1402330Y-3167502I-83345J67760D01*
G01X1462920Y-3106911D01*
G03X1472414Y-3083991I-22920J22920D01*
G01X1472414Y-3023745D01*
G03X1667586Y-2976283I88584J60751D01*
G01X1667586Y-3064565D01*
G01X1610490Y-3121661D01*
G03X1485045Y-3292947I-49492J-95332D01*
G03X1656330Y-3167502I75953J75953D01*
G01X1722920Y-3100911D01*
G03X1732414Y-3077991I-22920J22920D01*
G01X1732414Y-3031679D01*
G03X1909581Y-3013902I82584J68685D01*
G01X1909581Y-3076570D01*
G01X1864490Y-3121661D01*
G03X1739045Y-3292947I-49492J-95332D01*
G03X1910330Y-3167502I75953J75953D01*
G01X1964915Y-3112916D01*
G03X1974409Y-3089996I-22920J22920D01*
G01X1974409Y-2888335D01*
G03X1964915Y-2865414I-32414J0D01*
G01X1942414Y-2842913D01*
G01X1942414Y-2281189D01*
G03X1951056Y-2207417I-32414J41189D01*
G01X1989061Y-2207417D01*
G01X2010074Y-2228429D01*
G01X2010074Y-2345003D01*
G03X2019568Y-2367923I32414J0D01*
G01X2078860Y-2427216D01*
G03X2101780Y-2436709I22920J22920D01*
G01X2139906Y-2436709D01*
G03X2230674Y-2421302I41189J32414D01*
G03X2168476Y-2353423I-49578J17007D01*
G03X2187639Y-2242286I-35970J63423D01*
G03X2074902Y-2245300I-55133J-47714D01*
G01X2074902Y-2215003D01*
G03X2065408Y-2192083I-32414J0D01*
G01X2025408Y-2152083D01*
G03X2002488Y-2142589I-22920J-22920D01*
G01X1252257Y-2142589D01*
G01X1252417Y-2142392D01*
G01X1829118Y-2142414D01*
G03X1859109Y-2129991I0J42414D01*
G01X2392939Y-1596161D01*
G03X2462282Y-1554917I7061J67043D01*
G03X2442414Y-1476719I-62282J25798D01*
G01X2442414Y-877994D01*
G03X2429991Y-848003I-42414J0D01*
G01X2402176Y-820188D01*
G03X2375610Y-807904I-29991J-29991D01*
G03X2335120Y-807765I-20410J-48277D01*
G01X2295142Y-807765D01*
G01X2289543Y-802166D01*
G03X2269579Y-746854I-67043J7061D01*
G01X2335560Y-746854D01*
G03X2358480Y-737360I0J32414D01*
G01X2458780Y-637060D01*
G03X2468274Y-614140I-22920J22920D01*
G01X2468274Y-222338D01*
G01X2471363Y-222338D01*
G01X2471363Y-2254843D01*
G03X2334572Y-2290000I-63877J-35158D01*
G03X2471363Y-2325158I72913J0D01*
G01X2471363Y-3264777D01*
G01X2406893Y-3329247D01*
G01X2165409Y-3329247D01*
G01X2165409Y-2892028D01*
G03X2156100Y-2869293I-32414J0D01*
G01X2119585Y-2832184D01*
G03X2030830Y-2788198I-51994J6625D01*
G03X2073376Y-2877652I36762J-37360D01*
G01X2100582Y-2905301D01*
G01X2100582Y-3329247D01*
G01X2151058Y-421541D02*
G03X2220745Y-422749I35811J55218D01*
G03X2294226Y-417512I32863J57022D01*
G01X2294226Y-568411D01*
G03X2281155Y-635645I32414J-41189D01*
G03X2345756Y-658404I45485J26045D01*
G01X2322134Y-682026D01*
G01X1830056Y-682026D01*
G01X1806194Y-656952D01*
G01X1806194Y-515749D01*
G03X1787656Y-424016I-32414J41189D01*
G03X1724879Y-493426I-13876J-50544D01*
G03X1590226Y-549922I-40656J-91815D01*
G03X1546892Y-525107I-49005J-35332D01*
G01X1652640Y-421541D01*
G01X2151058Y-421541D01*
G01X1784637Y-257259D02*
G01X1784637Y-212407D01*
G01X1789875Y-218686D01*
G03X1797677Y-222338I7802J6508D01*
G01X2220765Y-222338D01*
G03X2251648Y-228143I24678J46241D01*
G01X2294226Y-270721D01*
G01X2294226Y-313942D01*
G03X2219732Y-309301I-40618J-51785D01*
G03X2152966Y-309913I-32863J-57022D01*
G01X1769724Y-309913D01*
G03X1784637Y-257259I-85501J52654D01*
G54D11*
G01X460252Y-3216994D02*
G01X419744Y-3216994D01*
G01X629743Y-3216994D02*
G01X670251Y-3216994D01*
G01X544998Y-3132248D02*
G01X544998Y-3091740D01*
G01X544998Y-3301740D02*
G01X544998Y-3342248D01*
G01X1733969Y-217259D02*
G01X1774477Y-217259D01*
G01X1634477Y-217259D02*
G01X1593969Y-217259D01*
G01X1634477Y-635241D02*
G01X1593969Y-635241D01*
G01X1684223Y-734987D02*
G01X1684223Y-775495D01*
G01X1684223Y-535495D02*
G01X1684223Y-494988D01*
G01X869963Y-635267D02*
G01X910471Y-635267D01*
G01X770471Y-635267D02*
G01X729963Y-635267D01*
G01X820217Y-735012D02*
G01X820217Y-775520D01*
G01X820217Y-535521D02*
G01X820217Y-495013D01*
G01X869963Y-217259D02*
G01X910471Y-217259D01*
G01X770471Y-217259D02*
G01X729963Y-217259D01*
G01X820217Y-307005D02*
G01X820217Y-347513D01*
G01X820217Y-127513D02*
G01X820217Y-87005D01*
G04 Copper End*

G04 PolygonModel Start*
G54D12*
G01X1879315Y-3883111D02*
G01X1821176Y-3838032D01*
G01X1821176Y-3755156D01*
G01X1766020Y-3700000D01*
G01X1766020Y-3671994D01*
G01X1533992Y-3693985D02*
G01X1533992Y-3765997D01*
G01X1419997Y-3879992D01*
G01X1315997Y-3879992D01*
G01X1253992Y-3817988D01*
G01X1253992Y-3342193D01*
G01X673362Y-3594985D02*
G01X497664Y-3787868D01*
G01X232445Y-3789985D01*
G01X2435860Y-66840D02*
G01X2435860Y-614140D01*
G01X2335560Y-714440D01*
G01X1816158Y-714440D01*
G01X1773780Y-669911D01*
G01X1773780Y-474560D01*
G54D11*
G01X2253608Y-365727D02*
G01X1629861Y-365727D01*
G01X1424940Y-566420D01*
G01X1629861Y-365727D02*
G01X1301346Y-365727D01*
G01X1072313Y-570180D01*
G54D12*
G01X2326640Y-609600D02*
G01X2326640Y-257294D01*
G01X2245443Y-176097D01*
G54D11*
G01X2222500Y-795106D02*
G01X2277574Y-850179D01*
G01X2372185Y-850179D01*
G01X2400000Y-877994D01*
G01X2400000Y-1529118D01*
G01X2400000Y-1529118D02*
G01X1829118Y-2100000D01*
G01X1200000Y-2100000D01*
G54D12*
G01X815186Y-2962994D02*
G01X815186Y-3064080D01*
G01X920961Y-3169855D01*
G01X920961Y-3709039D01*
G01X880000Y-3750000D01*
G01X975929Y-3879984D01*
G01X978623Y-3879984D01*
G01X578015Y-3445200D02*
G01X578015Y-3253886D01*
G01X1253992Y-3342193D02*
G01X1179998Y-3268198D01*
G01X1179998Y-3152791D01*
G01X1117200Y-3089994D01*
G01X990526Y-3089994D01*
G01X928106Y-3027574D01*
G01X928106Y-2910802D01*
G01X855799Y-2838495D01*
G01X669497Y-2838495D01*
G01X544998Y-2962994D01*
G01X1009433Y-3586053D02*
G01X920961Y-3674525D01*
G01X920961Y-3709039D01*
G01X1600000Y-2240000D02*
G01X1500000Y-2340000D01*
G01X1500000Y-2709992D01*
G01X1276998Y-2932994D01*
G01X1910000Y-2240000D02*
G01X1910000Y-2856340D01*
G01X1941995Y-2888335D01*
G01X1941995Y-3089996D01*
G01X1814998Y-3216994D01*
G01X1800896Y-2236304D02*
G01X1800896Y-2749104D01*
G01X1700000Y-2850000D01*
G01X1700000Y-3077991D01*
G01X1560998Y-3216994D01*
G01X1687668Y-2241450D02*
G01X1687668Y-2638087D01*
G01X1440000Y-2885755D01*
G01X1440000Y-3083991D01*
G01X1306998Y-3216994D01*
G01X2181095Y-2404295D02*
G01X2101780Y-2404295D01*
G01X2042488Y-2345003D01*
G01X2042488Y-2215003D01*
G01X2002488Y-2175003D01*
G01X1124997Y-2175003D01*
G01X1000000Y-2300000D01*
G01X2067591Y-2825558D02*
G01X2132995Y-2892027D01*
G01X2132995Y-3619993D01*
G54D13*
G01X544998Y-3216994D02*
G01X396198Y-3216994D01*
G01X359197Y-3179994D01*
G01X359197Y-2917897D01*
G01X477095Y-2800000D01*
G01X600000Y-2800000D01*
G01X654999Y-2745001D01*
G01X654999Y-2619995D01*
G54D12*
G01X563880Y-836450D02*
G01X563880Y-1713880D01*
G01X950000Y-2100000D01*
G01X1200000Y-2100000D01*
G01X1200000Y-2100000D01*

G04 Pad Start*
G54D14*
G01X544998Y-3216994D03*
G54D15*
G01X544998Y-2962994D03*
G01X798998Y-3216994D03*
G01X798998Y-2962994D03*
G01X1052998Y-3216994D03*
G01X1052998Y-2962994D03*
G01X1306998Y-3216994D03*
G01X1306998Y-2962994D03*
G01X1560998Y-3216994D03*
G01X1560998Y-2962994D03*
G01X1814998Y-3216994D03*
G01X1814998Y-2962994D03*
G54D16*
G01X2386995Y-3619993D03*
G54D18*
G01X2132995Y-3619993D03*
G54D19*
G01X1684223Y-635241D03*
G01X820217Y-635267D03*
G54D20*
G01X820217Y-217259D03*
G01X1684223Y-217259D03*
G54D21*
G01X1099993Y-3759977D03*
G01X339140Y-642060D03*
G04 Pad End*

G04 Via Start*
G54D13*
G01X2042146Y-514325D03*
G01X1949765Y-512797D03*
G01X1865924Y-512439D03*
G01X1884368Y-3749799D03*
G01X1879315Y-3883111D03*
G01X1766020Y-3671994D03*
G01X1533992Y-3693985D03*
G01X673362Y-3594985D03*
G01X232445Y-3789985D03*
G01X2245443Y-176097D03*
G01X2435860Y-66840D03*
G01X1773780Y-474560D03*
G01X2253608Y-365727D03*
G01X2186869Y-366323D03*
G01X1424940Y-566420D03*
G01X1072313Y-570180D03*
G01X1134986Y-1667920D03*
G01X1219083Y-1584999D03*
G01X1384091Y-1584999D03*
G01X1384091Y-1750000D03*
G01X1384091Y-1915001D03*
G01X1221978Y-1915001D03*
G01X1221978Y-1751871D03*
G01X1299987Y-1667920D03*
G01X1456463Y-1667920D03*
G01X1465580Y-1833880D03*
G01X1300616Y-1833880D03*
G01X1134786Y-1833880D03*
G01X2326640Y-609600D03*
G54D22*
G01X2222500Y-795106D03*
G54D13*
G01X2355200Y-856181D03*
G54D22*
G01X1200000Y-2100000D03*
G01X2400000Y-1529118D03*
G54D13*
G01X850000Y-3927480D03*
G01X880000Y-3750000D03*
G01X975929Y-3879984D03*
G01X578015Y-3445200D03*
G01X1253992Y-3476053D03*
G01X1009433Y-3586053D03*
G01X1600000Y-2240000D03*
G01X1910000Y-2240000D03*
G01X1800893Y-2236300D03*
G01X1687668Y-2241450D03*
G01X2181095Y-2404295D03*
G01X1000000Y-2300000D03*
G01X2067591Y-2825558D03*
G01X2086909Y-2589995D03*
G01X2086909Y-2743496D03*
G01X2381665Y-760545D03*
G01X563880Y-836450D03*
G01X700000Y-2300000D03*
G01X698500Y-2184400D03*
G01X813812Y-2184400D03*
G04 Via End*

G04 Track Start*
G54D12*
G01X1884368Y-3749799D02*
G01X1884368Y-3810099D01*
G01X1934515Y-3860246D01*
G01X1934515Y-3910246D01*
G01X870000Y-3947480D02*
G01X850000Y-3927480D01*
G01X1897281Y-3947480D02*
G01X870000Y-3947480D01*
G01X1934515Y-3910246D02*
G01X1897281Y-3947480D01*
G04 Track End*

M02*

